<?xml version="1.0" encoding="UTF-8"?><svg id="Layer_2" xmlns="http://www.w3.org/2000/svg" viewBox="0 0 52.2 46.13"><defs><style>.cls-1{fill:#fff;}.cls-2{fill:#0158b7;}</style></defs><g id="Layer_1-2"><g><path class="cls-1" d="m20.61,19.07c1.74-.74,3.6-1.11,5.49-1.1.95,0,1.89.09,2.82.27.9.18,1.78.45,2.62.81h.04c.84.37,1.64.82,2.4,1.33.75.5,1.44,1.06,2.08,1.7.64.63,1.2,1.33,1.7,2.08.51.75.96,1.55,1.32,2.39.37.86.66,1.75.85,2.66.37,1.87.37,3.78,0,5.65-.19.9-.48,1.78-.85,2.62v.05c-.36.84-.8,1.64-1.31,2.39-.5.75-1.07,1.44-1.7,2.08-.64.63-1.33,1.2-2.08,1.7-.76.51-1.56.96-2.4,1.32-.86.37-1.75.64-2.66.82-1.87.37-3.78.37-5.65,0-.9-.18-1.78-.45-2.62-.81h-.04c-.84-.36-1.64-.8-2.4-1.3-1.49-1.01-2.77-2.31-3.77-3.81-.51-.76-.94-1.56-1.3-2.4-.74-1.73-1.12-3.6-1.12-5.49,0-.95.11-1.9.3-2.82.18-.9.45-1.78.81-2.62v-.04c.36-.84.8-1.64,1.32-2.4.5-.75,1.06-1.44,1.7-2.07.63-.63,1.33-1.2,2.07-1.7.76-.51,1.56-.94,2.4-1.3v-.02Z"/><path class="cls-1" d="m36.68,12.72c-.32.16-.64.33-.96.51-1.01.6-1.96,1.28-2.86,2.03l-2.06-2.35c.71-.66,1.48-1.26,2.3-1.79.65-.42,1.32-.8,2.02-1.13.28-.14.57-.27.85-.4-1.26-2.26-3.19-4.07-5.52-5.18-2.21-1.05-4.66-1.48-7.09-1.24-2.41.22-4.71,1.12-6.63,2.59-2.42,1.92-4.04,4.66-4.55,7.71l-.2,1.07-1.06.19c-.95.16-1.88.41-2.79.75-.75.28-1.47.66-2.12,1.13-.47.34-.9.74-1.27,1.19-1.08,1.33-1.65,3-1.61,4.71.02,1.76.58,3.47,1.61,4.9.39.53.84,1.02,1.35,1.44.4.33.84.62,1.3.85-.13.77-.19,1.55-.2,2.34,0,.33,0,.65.03.97-.2-.07-.39-.14-.58-.22-.93-.38-1.8-.9-2.57-1.54-.7-.59-1.33-1.26-1.87-2C.79,27.29.02,24.93,0,22.51c-.09-3.33,1.48-6.49,4.19-8.43.87-.62,1.82-1.13,2.82-1.51.76-.29,1.54-.53,2.34-.71.8-3.39,2.74-6.41,5.49-8.55C17.23,1.47,20.09.35,23.09.08c2.99-.29,6.01.24,8.72,1.53,3.16,1.51,5.72,4.03,7.27,7.17.67-.11,1.35-.16,2.03-.15,2.96-.02,5.78,1.21,7.78,3.4.47.51.9,1.07,1.27,1.66,1.39,2.29,2.09,4.93,2.03,7.61-.03,2.68-.76,5.35-2.23,7.31-.99,1.29-2.24,2.35-3.66,3.13-.41.23-.84.45-1.27.64v-.32c0-1.01-.11-2.02-.33-3l.07-.04c1.06-.57,1.98-1.35,2.72-2.3,1.06-1.41,1.58-3.4,1.61-5.47.07-2.07-.46-4.11-1.52-5.89-.28-.44-.6-.85-.96-1.23-1.42-1.54-3.43-2.41-5.52-2.38-1.53.01-3.03.34-4.42.98Z"/><path class="cls-2" d="m24.03,19.69c-.96.16-1.89.43-2.79.81-.76.32-1.48.71-2.16,1.16-.66.44-1.28.95-1.84,1.52h0c-.36.35-.69.73-1,1.13h3.64c1.21-1.69,2.61-3.23,4.16-4.62h0Z"/><path class="cls-2" d="m36.96,38.23h.03c.24-.42.45-.86.65-1.31v-.04c.32-.75.56-1.52.71-2.31.11-.57.19-1.16.22-1.74h-3.48c-.11,1.9-.65,3.75-1.58,5.4h3.45Z"/><path class="cls-2" d="m35.95,39.79h-3.41c-1.22,1.7-2.65,3.25-4.25,4.6l.33-.06c.81-.16,1.6-.4,2.36-.73.74-.32,1.45-.71,2.12-1.16.66-.44,1.28-.95,1.84-1.52h0c.35-.35.69-.73.99-1.12h.01Z"/><path class="cls-2" d="m30.6,39.79h-3.72v3.76c1.37-1.12,2.62-2.38,3.73-3.76h-.01Z"/><path class="cls-2" d="m25.31,39.79h-3.72c1.12,1.38,2.37,2.63,3.73,3.76v-3.76h-.01Z"/><path class="cls-2" d="m19.65,39.79h-3.42c.31.39.64.77,1,1.12h0c.56.57,1.18,1.07,1.84,1.52.68.46,1.41.85,2.17,1.17h.04c.75.31,1.52.55,2.32.71l.33.06c-1.6-1.35-3.03-2.89-4.25-4.6l-.03.02Z"/><path class="cls-2" d="m15.2,38.23h3.49c-.94-1.65-1.49-3.5-1.61-5.4h-3.49c.07,1.41.4,2.8.95,4.09.2.45.42.88.66,1.31Z"/><path class="cls-2" d="m20.49,38.23h4.83v-5.4h-6.68c.15,1.93.78,3.79,1.85,5.4Z"/><path class="cls-2" d="m26.86,38.23h4.85c1.06-1.62,1.7-3.47,1.85-5.4h-6.68v5.4h-.02Z"/><path class="cls-2" d="m13.6,31.27h3.51c.19-1.91.8-3.75,1.77-5.4h-3.67c-.24.43-.45.87-.65,1.32v.03c-.32.75-.55,1.52-.71,2.32-.12.57-.19,1.16-.22,1.74h-.03Z"/><path class="cls-2" d="m18.67,31.27h6.66v-5.4h-4.63c-1.08,1.62-1.77,3.47-2,5.4h-.03Z"/><path class="cls-2" d="m26.87,31.27h6.66c-.24-1.93-.93-3.79-2.02-5.4h-4.63v5.4h0Z"/><path class="cls-2" d="m35.08,31.27h3.51c-.03-.59-.11-1.17-.22-1.74-.16-.8-.4-1.59-.72-2.34-.19-.45-.41-.88-.65-1.31h-3.69c.97,1.65,1.58,3.5,1.77,5.4h0Z"/><path class="cls-2" d="m21.8,24.31h3.53v-3.7c-1.28,1.12-2.46,2.36-3.53,3.7Z"/><path class="cls-2" d="m26.9,24.31h3.53c-1.06-1.33-2.24-2.57-3.53-3.7v3.7Z"/><path class="cls-2" d="m32.35,24.31h3.63c-.31-.4-.64-.77-.99-1.13h0c-.56-.57-1.19-1.07-1.85-1.52-.67-.45-1.38-.84-2.12-1.16h-.04c-.75-.32-1.52-.55-2.32-.71l-.45-.08c1.55,1.38,2.95,2.93,4.16,4.62l-.02-.02Z"/></g></g></svg>