<?xml version="1.0" encoding="UTF-8"?><svg id="Layer_2" xmlns="http://www.w3.org/2000/svg" viewBox="0 0 52.89 40.67"><defs><style>.cls-1{fill:#fff;}</style></defs><g id="Layer_1-2"><g><path class="cls-1" d="m18.6,7.3h-9.67c-.14,2.7-.4,6.09-.57,7.98.83-1.15,2.8-1.76,4.73-1.76,5.19,0,7.2,3.75,7.2,9.98v4.88c0,6.74-2.05,12.29-10.27,12.29S0,35.62,0,30.23v-1.15h7.58v2.02c0,1.7.44,3.42,2.3,3.42s2.38-1.35,2.38-4.73v-5.73c0-3-.57-4.08-2.33-4.08-1.65,0-2.26.99-2.48,3.59l-7.02-.57C1.02,17.01,1.71,7.28,2.09.55h17.29l-.78,6.75Z"/><path class="cls-1" d="m23.38,40.22V8.9c-1.14,0-2.65-.15-3.4-.25V3.01c2.52-.21,4.29-1.28,5.37-2.67h5.9v39.87h-7.86Z"/><path class="cls-1" d="m33.16,40.22v-.95c.02-7.74,2.91-12.5,6.65-17.95,3.47-5.06,4.61-6.47,4.61-10.81,0-2.93-.3-4.21-2.08-4.21-1.6,0-2.16,1.28-2.16,3.93v2.36h-7.07v-2.15c0-4.73,1.44-10.44,9.6-10.44,7.32,0,9.46,4.48,9.46,10.58s-2.12,8.88-5.85,14.09c-1.97,2.61-4.19,6.17-4.49,8.88h11.05l-.94,6.67h-18.79Z"/></g></g></svg>