<?xml version="1.0" encoding="UTF-8"?><svg id="Layer_2" xmlns="http://www.w3.org/2000/svg" viewBox="0 0 62.54 69.94"><defs><style>.cls-1,.cls-2{fill:#0158b7;}.cls-1,.cls-3{fill-rule:evenodd;}.cls-4,.cls-3{fill:#fff;}.cls-3{stroke:#373435;stroke-miterlimit:10;stroke-width:.15px;}</style></defs><g id="Layer_1-2"><g><path class="cls-4" d="m28.69,63.12v-4.97l1.66,1.81c.47.51,1.26.55,1.77.08.51-.47.55-1.26.08-1.77l-3.84-4.19s-.01-.01-.02-.02c-.03-.04-.07-.07-.11-.1-.03-.02-.05-.05-.08-.07-.04-.03-.09-.06-.14-.08-.03-.01-.05-.03-.07-.04-.06-.03-.13-.05-.19-.06-.02,0-.03-.01-.05-.01-.08-.02-.17-.03-.26-.03s-.17,0-.26.03c-.02,0-.03.01-.05.01-.07.02-.13.04-.19.06-.03.01-.05.03-.07.04-.05.03-.1.05-.14.08-.03.02-.05.04-.08.07-.04.03-.08.06-.11.1,0,0-.01.01-.02.02l-3.84,4.19c-.22.24-.33.54-.33.85,0,.34.14.68.41.93.51.47,1.3.43,1.77-.08l1.66-1.81v10.54c0,.69.56,1.25,1.25,1.25.69,0,1.25-.56,1.25-1.25v-5.58Z"/><path class="cls-4" d="m26.15,6.86l.12,4.97-1.7-1.77c-.48-.5-1.27-.51-1.77-.04-.5.48-.52,1.27-.04,1.77l3.94,4.1s.01.01.02.02c.03.04.07.07.11.1.03.02.05.04.08.06.05.03.09.05.14.08.03.01.05.03.08.04.06.03.13.04.19.06.02,0,.03.01.05.01.08.02.17.02.26.02s.17-.01.26-.03c.02,0,.03-.01.05-.02.07-.02.13-.04.19-.07.03-.01.05-.03.07-.04.05-.03.1-.05.14-.08.03-.02.05-.04.08-.07.04-.03.07-.06.11-.1,0,0,.01-.01.02-.02l3.74-4.28c.21-.25.31-.55.31-.85,0-.34-.15-.67-.43-.92-.52-.45-1.31-.4-1.77.12l-1.62,1.85-.25-10.54c-.02-.69-.59-1.24-1.28-1.22-.69.02-1.24.59-1.22,1.28l.13,5.57Z"/><g><polygon class="cls-3" points="47.89 59.8 .17 32.25 .17 21.49 47.89 49.04 47.89 59.8"/><polygon class="cls-3" points="62.37 53.61 47.89 59.8 47.89 49.04 62.37 42.85 62.37 53.61"/><polygon class="cls-3" points="47.89 48.93 .17 21.38 14.65 15.19 62.37 42.74 47.89 48.93"/><polygon class="cls-1" points="13.43 37.7 32.03 48.51 32.03 42.49 13.56 31.54 13.43 37.7"/><g><ellipse class="cls-2" cx="14.83" cy="19.42" rx="1.76" ry="1.16" transform="translate(-.46 .36) rotate(-1.37)"/><ellipse class="cls-2" cx="19.71" cy="22.23" rx="1.76" ry="1.16" transform="translate(-.52 .48) rotate(-1.37)"/><ellipse class="cls-2" cx="24.59" cy="25.04" rx="1.76" ry="1.16" transform="translate(-.59 .59) rotate(-1.37)"/><ellipse class="cls-2" cx="29.46" cy="27.85" rx="1.76" ry="1.16" transform="translate(-.66 .71) rotate(-1.37)"/><ellipse class="cls-2" cx="34.34" cy="30.66" rx="1.76" ry="1.16" transform="translate(-.72 .83) rotate(-1.37)"/><ellipse class="cls-2" cx="39.22" cy="33.47" rx="1.76" ry="1.16" transform="translate(-.79 .94) rotate(-1.37)"/><ellipse class="cls-2" cx="44.1" cy="36.28" rx="1.76" ry="1.16" transform="translate(-.85 1.06) rotate(-1.37)"/><ellipse class="cls-2" cx="48.97" cy="39.09" rx="1.76" ry="1.16" transform="translate(-.92 1.18) rotate(-1.37)"/><ellipse class="cls-2" cx="53.85" cy="41.9" rx="1.76" ry="1.16" transform="translate(-.98 1.3) rotate(-1.37)"/></g></g></g></g></svg>