<?xml version="1.0" encoding="UTF-8"?><svg id="Layer_2" xmlns="http://www.w3.org/2000/svg" viewBox="0 0 81.32 46.36"><defs><style>.cls-1,.cls-2{fill:#fff;}.cls-2{stroke-width:.52px;}.cls-2,.cls-3{stroke:#fff;stroke-linecap:round;stroke-linejoin:round;}.cls-3{stroke-width:.34px;}.cls-3,.cls-4{fill:none;}</style></defs><g id="Layer_1-2"><g><g><path class="cls-1" d="m51.51,28.51h4.23v1.25h-4.23v-1.25Z"/><rect class="cls-1" x="51.62" y="31.35" width="29.7" height="12.96"/><path class="cls-1" d="m51.97,46.36v-1.65h28.99v1.65h-28.99Z"/><path class="cls-1" d="m57.11,30.27v1.07h-.5v-1.09h-.88v-2.17h7.92v2.14h-1.42v1.12h-.49v-1.08h-4.63Z"/><path class="cls-1" d="m65.52,30.1h-1.86v-2.02c1.08,0,1.77.76,1.86,2.02Z"/><path class="cls-1" d="m63.66,31.35v-1.25h1.86v1.25h-1.86Z"/><rect class="cls-1" x="54.43" y="34.76" width="10.25" height="7.8"/><line class="cls-3" x1="56.19" y1="38.66" x2="62.44" y2="38.66"/><line class="cls-3" x1="56.19" y1="39.48" x2="62.44" y2="39.48"/><line class="cls-3" x1="56.19" y1="40.29" x2="62.44" y2="40.29"/><line class="cls-3" x1="56.19" y1="41.11" x2="62.44" y2="41.11"/></g><g><g><path class="cls-2" d="m49.12,18.72v.28s-7-.19-11.42-6.98c-.18-.28-.36-.57-.53-.86-.07-.13-.15-.26-.22-.4l.2-.15c.04.08.09.16.13.24h0c.19.35.4.68.61,1,4.34,6.67,11.23,6.86,11.23,6.86Z"/><path class="cls-2" d="m.26,18.47v.28s7-.19,11.42-6.98c.18-.28.36-.57.53-.86.07-.13.15-.26.22-.4l-.2-.15c-.04.08-.09.16-.13.24h0c-.19.35-.4.68-.61,1C7.15,18.28.26,18.47.26,18.47Z"/><path class="cls-1" d="m36.77,8.57c-.34,0-.61.27-.61.61v.02l.4-.35.32-.27h.02s-.12-.01-.12-.01Zm-24.25,0h-.02l.37.33h0l.25.22c-.03-.31-.29-.55-.61-.55Z"/><path class="cls-4" d="m12.5,8.57l.38.33-.38-.33Z"/><line class="cls-4" x1="36.87" y1="8.58" x2="36.55" y2="8.85"/><path class="cls-1" d="m13.14,9.18v1.09c0,.34-.27.61-.61.61h-.2s-.07,0-.1-.01c-.09-.01-.16-.04-.23-.09-.17-.11-.28-.3-.28-.51v-1.09c0-.34.27-.61.61-.61h.2c.32,0,.58.24.61.55,0,.02,0,.04,0,.07Z"/><path class="cls-1" d="m37.58,9.18v1.09c0,.23-.13.43-.32.53-.07.04-.15.07-.23.07-.02,0-.04,0-.06,0h-.2c-.34,0-.61-.27-.61-.61v-1.09c0-.34.27-.61.61-.61h.2c.34,0,.61.27.61.61Z"/></g><path class="cls-1" d="m28.15,5.95l-1.06-5.95h-4.79l-1.06,5.95h-9.86v1.64l.81.7.32.28h.02c.32,0,.58.24.61.55l.42.36.48.42,5.63,4.89-5.39,30.24v1.33h20.82v-1.33h.02l-5.39-30.24,6.34-5.5.1-.09v-.02c0-.34.27-.61.61-.61h.12l.19-.17.93-.81v-1.64h-9.86Zm1.06,12.28l-3.71-5.58,2.14-3.22,1.57,8.81Zm-.53,1.52h-7.9l3.95-5.94,3.95,5.94ZM23.13,1.64h3.12l.77,4.31h-4.65l.77-4.31Zm4.18,5.95h0s-2.59,3.9-2.59,3.9l-2.59-3.9h5.18Zm-5.55,1.76l2.19,3.3-3.8,5.71,1.6-9.01Zm-8.21-1.76h7.39l-.99,5.56-6.4-5.56Zm16.06,13.8l-4.99,4.33-4.99-4.33h9.99Zm-10.97,11.42l5.98-5.2,5.98,5.2h-11.96Zm11.31,1.64l-5.25,3.7-5.25-3.7h10.51Zm-10.62-11.43l4.21,3.66-5.75,4.99,1.54-8.64Zm-2.08,11.69l6.17,4.34-7.69,5.11,1.53-9.45Zm-.56,10.33l8.01-5.08,7.87,5.08h-15.89Zm16.96-.88l-7.66-5.11,6.17-4.34,1.5,9.45Zm-3.6-21.24l1.58,8.89-5.91-5.13,4.33-3.76Zm-.61-9.76l-.99-5.56h7.39l-6.4,5.56Z"/></g></g></g></svg>