<?xml version="1.0" encoding="UTF-8"?><svg id="Layer_2" xmlns="http://www.w3.org/2000/svg" viewBox="0 0 75.01 55.7"><defs><style>.cls-1{fill:#fff;}</style></defs><g id="Layer_1-2"><g><path class="cls-1" d="m37.58,0c8.39,0,16.78,0,25.17,0,6.94,0,12.24,5.26,12.25,12.18.01,10.48.02,20.95,0,31.43-.01,5.92-4.02,10.76-9.79,11.87-.8.15-1.63.2-2.45.2-16.81.01-33.62,0-50.43.01-6.86,0-12.25-5.23-12.28-12.09C-.01,33.14,0,22.66.03,12.19.05,5.22,5.45-.02,12.42,0c8.39.02,16.78,0,25.17,0Zm-.05,52.39c8.35,0,16.7,0,25.06,0,5.37,0,9.09-3.71,9.1-9.11.01-10.37.01-20.74,0-31.12,0-5.06-3.79-8.81-8.84-8.81-16.88,0-33.75,0-50.63,0-5.02,0-8.85,3.79-8.86,8.81-.02,10.44-.02,20.88,0,31.32,0,5.07,3.84,8.89,8.92,8.9,8.42.02,16.84,0,25.26,0Z"/><path class="cls-1" d="m60.66,14.01c-.46-.03-.79-.06-1.13-.06-8.22,0-16.43,0-24.65,0-.17,0-.34,0-.51,0-2.62.04-3.11.52-3.12,3.14,0,2.67,0,5.33,0,8.12.38.03.7.07,1.03.07,4.42,0,8.83,0,13.25,0,1.45,0,2.78.33,3.89,1.33.85.77,1.31,1.73,1.3,2.9-.03,3.25.02,6.51-.07,9.75-.04,1.46-.21,2.95-.58,4.35-.81,3.09-2.99,4.84-6.63,4.96-6.97.23-13.95.27-20.93.29-2.69,0-5.41-.13-8.08-.45-3.81-.46-6.02-3.04-6.16-6.88-.05-1.4-.07-2.8,0-4.2.09-1.62,1.32-2.78,2.84-2.81,1.53-.03,2.87,1.17,3.03,2.77.08.75.05,1.5.07,2.26.08,2.47.99,3.4,3.46,3.43,3.66.04,7.33.04,10.99.04,4.04,0,8.08,0,12.12,0,2.73,0,4.1-1.4,4.11-4.12,0-2.42,0-4.84,0-7.39-.53,0-.93,0-1.33,0-4.38,0-8.76,0-13.15,0-.51,0-1.04,0-1.53-.1-2.74-.57-3.77-1.83-3.81-4.63-.03-2.7-.02-5.41-.03-8.11,0-1.5-.08-3,0-4.5.15-2.55,1.62-4.23,3.96-4.95,1.57-.49,3.28-.73,4.93-.73,8.69-.03,17.39.03,26.08.11,1.18.01,2.4.2,3.52.56,2.04.64,3,2.15,2.91,4.29-.09,2.29-.19,4.58-.35,6.86-.09,1.25-1.01,1.97-2.39,2.05-1.27.07-2.5-.65-2.65-1.78-.23-1.79-.29-3.61-.41-5.41-.02-.37,0-.73,0-1.16Z"/><path class="cls-1" d="m16.31,8.23c1.97,0,3.88,0,5.79,0,.79,0,.62.58.62,1.02,0,5.48,0,10.95,0,16.43,0,4.28,0,8.56,0,12.83,0,.47,0,.94,0,1.48h-6.42V8.23Z"/><path class="cls-1" d="m52.65,48.55v-31.73h6.33c.03.33.08.63.08.92,0,9.85-.01,19.71.01,29.56,0,.95-.19,1.34-1.23,1.28-1.7-.1-3.41-.03-5.18-.03Z"/></g></g></svg>