<?xml version="1.0" encoding="UTF-8"?>
<svg id="Layer_2" data-name="Layer 2" xmlns="http://www.w3.org/2000/svg" viewBox="0 0 49.47 33.38">
  <defs>
    <style>
      .cls-1 {
        fill: #fff;
      }
    </style>
  </defs>
  <g id="Layer_1-2" data-name="Layer 1">
    <path class="cls-1" d="m49.44,15.37c.03-.36.03-.72,0-1.09-.42-5.99-2.66-5.71-2.66-5.71,0,0,2.84-4.55,2.39-8.58,0,0-6.57,20.38-21.45,24.93,0,0,10.36-4.6,16.05-16.75,0,0-1.99-.34-9.16,3.81,2.69-.46,3.94-.18,3.94-.18-.13.01-.26.02-.39.03-2.72.26-5.33,1.17-7.62,2.65-.43.27-.86.56-1.32.86,2.55-.15,3.78.32,3.78.32-1.2.03-2.32.12-3.36.27-1.08.15-2.1.54-3,1.15-2.25,1.55-4.77,3.36-7.61,5.49,0,0-1.66-1.78-3.93-3.64-.1,1.04-.11,2.17.05,3.3,0,0-.16-.86-.35-2.15-.15-1.03-.7-1.97-1.55-2.57-.3-.21-.61-.42-.92-.62-.08,1.23-.04,2.62.26,3.99,0,0-.29-1.11-.63-2.7-.26-1.19-1.07-2.21-2.2-2.68-.07-.03-.14-.06-.21-.09-.1,1.3-.08,2.83.24,4.32,0,0-.41-1.56-.82-3.61-.13-.65-.66-1.16-1.32-1.24h-.01C2.73,14.21-.01,16.55,0,19.71c0,3.16.32,6.61,8.51,11.52,2.87,1.72,6.82,2.25,10.9,2.13-4.17-1.44-9.25-4.6-13.06-11.43,1.59,2.68,6.25,9.02,15.98,11.24,6.62-.65,13.02-2.64,15.32-3.73,0,0-7.52.91-13.48-2.78.79.35,8.17,3.44,17.9-.19,0,0,.3-.24.79-.67.83-.75,1.12-1.95.66-2.97-.21-.47-.44-.92-.71-1.35,0,0,.99.77,1.87,2.56.24-.26.49-.53.74-.81.54-.62.77-1.47.59-2.27-.36-1.63-.92-3.31-1.8-4.75,0,0,1.89,1.46,2.77,5.06.22-.31.44-.64.65-.97,1.05-1.67,1.33-3.71.79-5.61-.35-1.24-.84-2.47-1.5-3.56,0,0,1.6,1.24,2.54,4.26ZM5.74,20.78c.19.37.38.73.57,1.07-.31-.53-.5-.91-.57-1.07Z"/>
  </g>
</svg>