<?xml version="1.0" encoding="UTF-8"?><svg id="Layer_2" xmlns="http://www.w3.org/2000/svg" viewBox="0 0 126.15 53.93"><defs><style>.cls-1{fill:none;stroke:#fff;stroke-linecap:round;stroke-linejoin:round;stroke-width:2.7px;}.cls-2{fill:#fff;}</style></defs><g id="Layer_1-2"><g><g><g><path class="cls-2" d="m91.88,31.56v-.43c0-1.15-.25-2.14-1.41-2.14s-1.54.86-1.54,2.88v3.47c.8-1.09,1.96-1.63,3.5-1.63,3.28,0,4.49,2.6,4.49,5.98v4.36c0,3.93-1.57,7.02-6.49,7.02s-6.42-3.36-6.42-7.11v-11.19c0-4.31,1.32-7.79,6.45-7.79,5.49,0,6.09,3.97,6.09,6.37v.23h-4.68Zm.08,13.15v-4.39c0-1.52-.33-2.37-1.47-2.37-1.06,0-1.55.64-1.55,2.39v4.36c0,1.35.3,2.39,1.53,2.39s1.5-.96,1.5-2.39Z"/><path class="cls-2" d="m98.47,32.31v-1.12c0-3.04,1.06-6.22,6.01-6.22,4.23,0,5.95,2.39,5.95,6.08v.96c0,2.94-1.13,4.31-2.6,4.91v.05c1.65.61,3.12,1.93,3.12,5.07v2.03c0,4.28-1.64,7-6.52,7s-6.22-2.73-6.22-6.34v-.97h4.6v1.08c0,1.21.3,2.27,1.59,2.27s1.56-1.13,1.56-2.45v-2.64c0-2.06-.61-2.86-2.58-2.86h-1.37v-4.09h1.44c1.61,0,2.19-.59,2.19-2.53v-1.51c0-1.22-.18-2.18-1.32-2.18s-1.4.89-1.4,2.08v1.38h-4.46Z"/></g><g><path class="cls-2" d="m113.48,29.63c0-2,0-2.96-.03-3.97h2.72c.03.24.08,1.22.08,1.75.42-1.36,1.35-1.92,2.44-1.92v3.43c-1.37,0-2.36.25-2.36,2.24v6.2h-2.85v-7.72Z"/><path class="cls-2" d="m126.12,21.89v12.2c0,1.66,0,2.66.03,3.27h-2.7c-.04-.3-.09-.83-.1-1.06-.46.83-1.06,1.25-2.13,1.25-1.86,0-2.48-1.44-2.48-3.74v-4.81c0-1.94.7-3.51,2.68-3.51.75,0,1.52.22,1.84.83v-4.43h2.85Zm-4.52,7.31v4.61c0,.8.2,1.26.82,1.26.68,0,.85-.6.85-1.6v-3.92c0-1.04-.12-1.59-.84-1.59-.61,0-.84.44-.84,1.25Z"/></g></g><g><path class="cls-1" d="m1.59,50.34c1-1.15,2-2.69,3-4.53,2.67-4.9,5.35-11.88,8.02-18.85C17.52,14.16,22.43,1.35,27.34,1.35s9.82,12.81,14.73,25.61c4.91,12.81,9.82,25.61,14.73,25.61s9.82-12.8,14.73-25.61"/><path class="cls-1" d="m1.35,23.48c.45,1.15.89,2.32,1.34,3.48,4.91,12.81,9.82,25.61,14.73,25.61s9.82-12.8,14.73-25.61C37.07,14.16,41.98,1.35,46.89,1.35s9.82,12.81,14.73,25.61c2.47,6.45,4.66,13.23,7.42,17.71,1.23,2,2.24,3.64,3.17,4.91"/></g></g></g></svg>