<?xml version="1.0" encoding="UTF-8"?>
<svg id="Layer_2" data-name="Layer 2" xmlns="http://www.w3.org/2000/svg" viewBox="0 0 16.41 33.56">
  <defs>
    <style>
      .cls-1 {
        fill: #fff;
      }
    </style>
  </defs>
  <g id="Layer_1-2" data-name="Layer 1">
    <path class="cls-1" d="m6.81,33.56v-3.92c-1.77-.31-3.22-.99-4.36-2.03-1.13-1.04-1.95-2.35-2.45-3.94l2.61-1.07c.53,1.49,1.29,2.6,2.28,3.33s2.19,1.1,3.59,1.1c1.49,0,2.72-.37,3.68-1.12s1.44-1.77,1.44-3.08-.43-2.42-1.28-3.17-2.46-1.51-4.82-2.28c-2.24-.71-3.91-1.66-5.01-2.84-1.1-1.18-1.65-2.66-1.65-4.43s.55-3.14,1.65-4.29,2.54-1.8,4.31-1.96V0h2.8v3.87c1.4.16,2.6.61,3.61,1.38s1.78,1.73,2.31,2.91l-2.61,1.12c-.44-.99-1.02-1.72-1.75-2.17s-1.69-.68-2.87-.68c-1.43,0-2.56.33-3.4.98s-1.26,1.54-1.26,2.66c0,1.18.47,2.14,1.4,2.87s2.66,1.48,5.17,2.26c2.11.65,3.67,1.59,4.68,2.82s1.51,2.77,1.51,4.64c0,1.96-.57,3.53-1.72,4.73-1.15,1.2-2.84,1.97-5.08,2.31v3.87h-2.8Z"/>
  </g>
</svg>