<?xml version="1.0" encoding="UTF-8"?><svg id="Layer_2" xmlns="http://www.w3.org/2000/svg" viewBox="0 0 84.77 38.83"><defs><style>.cls-1{fill:#fff;}</style></defs><g id="Layer_1-2"><g><g><rect class="cls-1" x="30.12" y="21.46" width="34.43" height="6.74" rx="1.55" ry="1.55"/><path class="cls-1" d="m62.45,38.62l21.54-12.44c1.03-.6,1.03-2.09,0-2.69l-21.54-12.44c-1.04-.6-2.33.15-2.33,1.34v24.88c0,1.2,1.29,1.94,2.33,1.34Z"/></g><g><rect class="cls-1" x="20.22" y="10.62" width="34.43" height="6.74" rx="1.55" ry="1.55"/><path class="cls-1" d="m22.32.21L.78,12.65c-1.03.6-1.03,2.09,0,2.69l21.54,12.44c1.04.6,2.33-.15,2.33-1.34V1.55c0-1.2-1.29-1.94-2.33-1.34Z"/></g></g></g></svg>