<?xml version="1.0" encoding="UTF-8"?><svg id="Layer_2" xmlns="http://www.w3.org/2000/svg" viewBox="0 0 57.53 37.95"><defs><style>.cls-1{stroke:#fff;stroke-miterlimit:10;stroke-width:.12px;}.cls-1,.cls-2{fill:#fff;}</style></defs><g id="Layer_1-2"><g><path class="cls-2" d="m51.08,17.79h-4.7l1.72-1.57c.48-.44.52-1.19.07-1.68-.44-.48-1.19-.52-1.68-.07l-3.97,3.63s-.01.01-.02.02c-.03.03-.06.07-.09.11-.02.02-.04.05-.06.07-.03.04-.05.09-.08.13-.01.02-.03.05-.04.07-.03.06-.04.12-.06.18,0,.02-.01.03-.01.05-.02.08-.03.16-.03.24s0,.16.03.24c0,.02.01.03.01.05.02.06.03.12.06.18.01.02.03.05.04.07.02.05.05.09.08.13.02.03.04.05.06.07.03.04.06.07.09.11,0,0,.01.01.02.02l3.97,3.63c.23.21.51.31.8.31.32,0,.64-.13.88-.38.44-.48.41-1.23-.07-1.68l-1.72-1.57h9.97c.65,0,1.19-.53,1.19-1.19,0-.65-.53-1.19-1.18-1.19h-5.27Z"/><path class="cls-2" d="m6.46,20.16h4.7l-1.72,1.57c-.48.44-.52,1.19-.07,1.68.44.48,1.19.52,1.68.07l3.97-3.63s.01-.01.02-.02c.03-.03.06-.07.09-.11.02-.02.04-.05.06-.07.03-.04.05-.09.08-.13.01-.02.03-.05.04-.07.03-.06.04-.12.06-.18,0-.02.01-.03.01-.05.02-.08.03-.16.03-.24s0-.16-.03-.24c0-.02-.01-.03-.01-.05-.02-.06-.03-.12-.06-.18-.01-.02-.03-.05-.04-.07-.02-.05-.05-.09-.08-.13-.02-.03-.04-.05-.06-.07-.03-.04-.06-.07-.09-.11,0,0-.01-.01-.02-.02l-3.97-3.63c-.23-.21-.51-.31-.8-.31-.32,0-.64.13-.88.38-.44.48-.41,1.23.07,1.68l1.72,1.57H1.19C.53,17.79,0,18.32,0,18.97c0,.65.53,1.19,1.18,1.19h5.27Z"/><rect class="cls-1" x="19.3" y=".06" width="18.72" height="37.83"/></g></g></svg>