<?xml version="1.0" encoding="UTF-8"?><svg id="Layer_2" xmlns="http://www.w3.org/2000/svg" viewBox="0 0 32.6 70.77"><defs><style>.cls-1,.cls-2,.cls-3{fill:#fff;}.cls-2,.cls-4,.cls-3,.cls-5{stroke:#fff;stroke-miterlimit:2.12;}.cls-2,.cls-3{fill-rule:evenodd;}.cls-2,.cls-5{stroke-width:.41px;}.cls-4,.cls-3{stroke-width:.36px;}.cls-4,.cls-5,.cls-6{fill:none;}</style></defs><g id="Layer_1-2"><g><g><path class="cls-6" d="m13.22,40.09s0,0,0,.01c.14-.32.23-.69.23-1.22,0-.9-.26-1.35-.57-1.86,0,0,0,0,0-.01-.14.32-.23.69-.23,1.22,0,.9.26,1.35.57,1.86Z"/><path class="cls-6" d="m13.22,48.7s0,0,0,.01c.14-.32.23-.69.23-1.22,0-.9-.26-1.35-.57-1.86,0,0,0,0,0-.01-.14.32-.23.69-.23,1.22,0,.9.26,1.35.57,1.86Z"/><path class="cls-6" d="m12.65,51.81c0,.53.09.9.23,1.22,0,0,0,0,0-.01.31-.51.57-.96.57-1.86,0-.53-.09-.9-.23-1.22,0,0,0,0,0,.01-.31.51-.57.96-.57,1.86Z"/><path class="cls-6" d="m12.65,43.19c0,.53.09.9.23,1.22,0,0,0,0,0-.01.31-.51.57-.96.57-1.86,0-.53-.09-.9-.23-1.22,0,0,0,0,0,.01-.31.51-.57.96-.57,1.86Z"/><path class="cls-6" d="m12.65,34.57c0,.53.09.9.23,1.22,0,0,0,0,0-.01.31-.51.57-.96.57-1.86,0-.53-.09-.9-.23-1.22,0,0,0,0,0,.01-.31.51-.57.96-.57,1.86Z"/><path class="cls-1" d="m12.54,53.64c-.21.45-.37,1-.37,1.83,0,.23.11.41.24.41s.24-.18.24-.41c0-.53.09-.9.23-1.22-.11-.19-.23-.39-.33-.61Z"/><path class="cls-1" d="m13.94,33.92c0-.82-.17-1.38-.37-1.83-.11.23-.22.42-.33.61.14.32.23.69.23,1.22,0,.9-.26,1.35-.57,1.86,0,0,0,0,0,.01.09.22.21.41.33.61,0-.01.01-.02.02-.03.34-.56.72-1.2.72-2.45Z"/><path class="cls-1" d="m13.23,31.48s0,0,0-.01c-.31-.51-.57-.96-.57-1.86,0-.23-.11-.41-.24-.41s-.24.18-.24.41c0,1.25.38,1.89.72,2.45,0,.01.01.02.02.03.12-.2.23-.39.33-.61Z"/><path class="cls-1" d="m13.23,41.32c.14.32.23.69.23,1.22,0,.9-.26,1.35-.57,1.86,0,0,0,0,0,.01.09.22.21.41.33.61,0-.01.01-.02.02-.03.34-.56.72-1.2.72-2.45,0-.82-.17-1.38-.37-1.83-.11.23-.22.42-.33.61Z"/><path class="cls-1" d="m13.23,48.72s0,0,0-.01c-.31-.51-.57-.96-.57-1.86,0-.53.09-.9.23-1.22-.11-.19-.23-.39-.33-.61-.21.45-.37,1-.37,1.83,0,1.25.38,1.89.72,2.45,0,.01.01.02.02.03.12-.2.23-.39.33-.61Z"/><path class="cls-1" d="m13.23,40.1s0,0,0-.01c-.31-.51-.57-.96-.57-1.86,0-.53.09-.9.23-1.22-.11-.19-.23-.39-.33-.61-.21.45-.37,1-.37,1.83,0,1.25.38,1.89.72,2.45,0,.01.01.02.02.03.12-.2.23-.39.33-.61Z"/><path class="cls-1" d="m13.23,49.94c.14.32.23.69.23,1.22,0,.9-.26,1.35-.57,1.86,0,0,0,0,0,.01.09.22.21.41.33.61,0-.01.01-.02.02-.03.34-.56.72-1.2.72-2.45,0-.82-.17-1.38-.37-1.83-.11.23-.22.42-.33.61Z"/><path class="cls-1" d="m12.88,35.79c-.14-.32-.23-.69-.23-1.22,0-.9.26-1.35.57-1.86,0,0,0,0,0-.01-.09-.22-.21-.41-.33-.61,0,.01-.01.02-.02.03-.34.56-.72,1.2-.72,2.45,0,.82.17,1.38.37,1.83.11-.23.22-.42.33-.61Z"/><path class="cls-1" d="m12.88,44.41c-.14-.32-.23-.69-.23-1.22,0-.9.26-1.35.57-1.86,0,0,0,0,0-.01-.09-.22-.21-.41-.33-.61,0,.01-.01.02-.02.03-.34.56-.72,1.2-.72,2.45,0,.82.17,1.38.37,1.83.11-.23.22-.42.33-.61Z"/><path class="cls-1" d="m13.56,32.09c.21-.45.37-1,.37-1.83,0-.23-.11-.41-.24-.41s-.24.18-.24.41c0,.53-.09.9-.23,1.22.11.19.23.39.33.61Z"/><path class="cls-1" d="m12.88,54.25s0,0,0,.01c.31.51.57.96.57,1.86,0,.23.11.41.24.41s.24-.18.24-.41c0-1.25-.38-1.89-.72-2.45,0-.01-.01-.02-.02-.03-.12.2-.23.39-.33.61Z"/><path class="cls-1" d="m12.88,37.01s0,0,0,.01c.31.51.57.96.57,1.86,0,.53-.09.9-.23,1.22.11.19.23.39.33.61.21-.45.37-1,.37-1.83,0-1.25-.38-1.89-.72-2.45,0-.01-.01-.02-.02-.03-.12.2-.23.39-.33.61Z"/><path class="cls-1" d="m12.88,45.63s0,0,0,.01c.31.51.57.96.57,1.86,0,.53-.09.9-.23,1.22.11.19.23.39.33.61.21-.45.37-1,.37-1.83,0-1.25-.38-1.89-.72-2.45,0-.01-.01-.02-.02-.03-.12.2-.23.39-.33.61Z"/><path class="cls-1" d="m12.88,53.03c-.14-.32-.23-.69-.23-1.22,0-.9.26-1.35.57-1.86,0,0,0,0,0-.01-.09-.22-.21-.41-.33-.61,0,.01-.01.02-.02.03-.34.56-.72,1.2-.72,2.45,0,.82.17,1.38.37,1.83.11-.23.22-.42.33-.61Z"/><path class="cls-1" d="m12.88,53.03c-.11.19-.23.39-.33.61.11.23.22.42.33.61.09-.22.21-.41.33-.61-.12-.2-.23-.39-.33-.61Z"/><path class="cls-1" d="m12.88,35.79c-.11.19-.23.39-.33.61.11.23.22.42.33.61.09-.22.21-.41.33-.61-.12-.2-.23-.39-.33-.61Z"/><path class="cls-1" d="m13.23,40.1c-.09.22-.21.41-.33.61.12.2.23.39.33.61.11-.19.23-.39.33-.61-.11-.23-.22-.42-.33-.61Z"/><path class="cls-1" d="m13.23,32.7c.11-.19.23-.39.33-.61-.11-.23-.22-.42-.33-.61-.09.22-.21.41-.33.61.12.2.23.39.33.61Z"/><path class="cls-1" d="m13.23,48.72c-.09.22-.21.41-.33.61.12.2.23.39.33.61.11-.19.23-.39.33-.61-.11-.23-.22-.42-.33-.61Z"/><path class="cls-1" d="m12.88,44.41c-.11.19-.23.39-.33.61.11.23.22.42.33.61.09-.22.21-.41.33-.61-.12-.2-.23-.39-.33-.61Z"/></g><g><path class="cls-6" d="m16.36,40.09s0,0,0,.01c.14-.32.23-.69.23-1.22,0-.9-.26-1.35-.57-1.86,0,0,0,0,0-.01-.14.32-.23.69-.23,1.22,0,.9.26,1.35.57,1.86Z"/><path class="cls-6" d="m16.36,48.7s0,0,0,.01c.14-.32.23-.69.23-1.22,0-.9-.26-1.35-.57-1.86,0,0,0,0,0-.01-.14.32-.23.69-.23,1.22,0,.9.26,1.35.57,1.86Z"/><path class="cls-6" d="m15.79,51.81c0,.53.09.9.23,1.22,0,0,0,0,0-.01.31-.51.57-.96.57-1.86,0-.53-.09-.9-.23-1.22,0,0,0,0,0,.01-.31.51-.57.96-.57,1.86Z"/><path class="cls-6" d="m15.79,43.19c0,.53.09.9.23,1.22,0,0,0,0,0-.01.31-.51.57-.96.57-1.86,0-.53-.09-.9-.23-1.22,0,0,0,0,0,.01-.31.51-.57.96-.57,1.86Z"/><path class="cls-6" d="m15.79,34.57c0,.53.09.9.23,1.22,0,0,0,0,0-.01.31-.51.57-.96.57-1.86,0-.53-.09-.9-.23-1.22,0,0,0,0,0,.01-.31.51-.57.96-.57,1.86Z"/><path class="cls-1" d="m15.68,53.64c-.21.45-.37,1-.37,1.83,0,.23.11.41.24.41s.24-.18.24-.41c0-.53.09-.9.23-1.22-.11-.19-.23-.39-.33-.61Z"/><path class="cls-1" d="m17.08,33.92c0-.82-.17-1.38-.37-1.83-.11.23-.22.42-.33.61.14.32.23.69.23,1.22,0,.9-.26,1.35-.57,1.86,0,0,0,0,0,.01.09.22.21.41.33.61,0-.01.01-.02.02-.03.34-.56.72-1.2.72-2.45Z"/><path class="cls-1" d="m16.37,31.48s0,0,0-.01c-.31-.51-.57-.96-.57-1.86,0-.23-.11-.41-.24-.41s-.24.18-.24.41c0,1.25.38,1.89.72,2.45,0,.01.01.02.02.03.12-.2.23-.39.33-.61Z"/><path class="cls-1" d="m16.37,41.32c.14.32.23.69.23,1.22,0,.9-.26,1.35-.57,1.86,0,0,0,0,0,.01.09.22.21.41.33.61,0-.01.01-.02.02-.03.34-.56.72-1.2.72-2.45,0-.82-.17-1.38-.37-1.83-.11.23-.22.42-.33.61Z"/><path class="cls-1" d="m16.37,48.72s0,0,0-.01c-.31-.51-.57-.96-.57-1.86,0-.53.09-.9.23-1.22-.11-.19-.23-.39-.33-.61-.21.45-.37,1-.37,1.83,0,1.25.38,1.89.72,2.45,0,.01.01.02.02.03.12-.2.23-.39.33-.61Z"/><path class="cls-1" d="m16.37,40.1s0,0,0-.01c-.31-.51-.57-.96-.57-1.86,0-.53.09-.9.23-1.22-.11-.19-.23-.39-.33-.61-.21.45-.37,1-.37,1.83,0,1.25.38,1.89.72,2.45,0,.01.01.02.02.03.12-.2.23-.39.33-.61Z"/><path class="cls-1" d="m16.37,49.94c.14.32.23.69.23,1.22,0,.9-.26,1.35-.57,1.86,0,0,0,0,0,.01.09.22.21.41.33.61,0-.01.01-.02.02-.03.34-.56.72-1.2.72-2.45,0-.82-.17-1.38-.37-1.83-.11.23-.22.42-.33.61Z"/><path class="cls-1" d="m16.02,35.79c-.14-.32-.23-.69-.23-1.22,0-.9.26-1.35.57-1.86,0,0,0,0,0-.01-.09-.22-.21-.41-.33-.61,0,.01-.01.02-.02.03-.34.56-.72,1.2-.72,2.45,0,.82.17,1.38.37,1.83.11-.23.22-.42.33-.61Z"/><path class="cls-1" d="m16.02,44.41c-.14-.32-.23-.69-.23-1.22,0-.9.26-1.35.57-1.86,0,0,0,0,0-.01-.09-.22-.21-.41-.33-.61,0,.01-.01.02-.02.03-.34.56-.72,1.2-.72,2.45,0,.82.17,1.38.37,1.83.11-.23.22-.42.33-.61Z"/><path class="cls-1" d="m16.7,32.09c.21-.45.37-1,.37-1.83,0-.23-.11-.41-.24-.41s-.24.18-.24.41c0,.53-.09.9-.23,1.22.11.19.23.39.33.61Z"/><path class="cls-1" d="m16.02,54.25s0,0,0,.01c.31.51.57.96.57,1.86,0,.23.11.41.24.41s.24-.18.24-.41c0-1.25-.38-1.89-.72-2.45,0-.01-.01-.02-.02-.03-.12.2-.23.39-.33.61Z"/><path class="cls-1" d="m16.02,37.01s0,0,0,.01c.31.51.57.96.57,1.86,0,.53-.09.9-.23,1.22.11.19.23.39.33.61.21-.45.37-1,.37-1.83,0-1.25-.38-1.89-.72-2.45,0-.01-.01-.02-.02-.03-.12.2-.23.39-.33.61Z"/><path class="cls-1" d="m16.02,45.63s0,0,0,.01c.31.51.57.96.57,1.86,0,.53-.09.9-.23,1.22.11.19.23.39.33.61.21-.45.37-1,.37-1.83,0-1.25-.38-1.89-.72-2.45,0-.01-.01-.02-.02-.03-.12.2-.23.39-.33.61Z"/><path class="cls-1" d="m16.02,53.03c-.14-.32-.23-.69-.23-1.22,0-.9.26-1.35.57-1.86,0,0,0,0,0-.01-.09-.22-.21-.41-.33-.61,0,.01-.01.02-.02.03-.34.56-.72,1.2-.72,2.45,0,.82.17,1.38.37,1.83.11-.23.22-.42.33-.61Z"/><path class="cls-1" d="m16.02,53.03c-.11.19-.23.39-.33.61.11.23.22.42.33.61.09-.22.21-.41.33-.61-.12-.2-.23-.39-.33-.61Z"/><path class="cls-1" d="m16.02,35.79c-.11.19-.23.39-.33.61.11.23.22.42.33.61.09-.22.21-.41.33-.61-.12-.2-.23-.39-.33-.61Z"/><path class="cls-1" d="m16.37,40.1c-.09.22-.21.41-.33.61.12.2.23.39.33.61.11-.19.23-.39.33-.61-.11-.23-.22-.42-.33-.61Z"/><path class="cls-1" d="m16.37,32.7c.11-.19.23-.39.33-.61-.11-.23-.22-.42-.33-.61-.09.22-.21.41-.33.61.12.2.23.39.33.61Z"/><path class="cls-1" d="m16.37,48.72c-.09.22-.21.41-.33.61.12.2.23.39.33.61.11-.19.23-.39.33-.61-.11-.23-.22-.42-.33-.61Z"/><path class="cls-1" d="m16.02,44.41c-.11.19-.23.39-.33.61.11.23.22.42.33.61.09-.22.21-.41.33-.61-.12-.2-.23-.39-.33-.61Z"/></g><g><path class="cls-6" d="m19.5,40.09s0,0,0,.01c.14-.32.23-.69.23-1.22,0-.9-.26-1.35-.57-1.86,0,0,0,0,0-.01-.14.32-.23.69-.23,1.22,0,.9.26,1.35.57,1.86Z"/><path class="cls-6" d="m19.5,48.7s0,0,0,.01c.14-.32.23-.69.23-1.22,0-.9-.26-1.35-.57-1.86,0,0,0,0,0-.01-.14.32-.23.69-.23,1.22,0,.9.26,1.35.57,1.86Z"/><path class="cls-6" d="m18.93,51.81c0,.53.09.9.23,1.22,0,0,0,0,0-.01.31-.51.57-.96.57-1.86,0-.53-.09-.9-.23-1.22,0,0,0,0,0,.01-.31.51-.57.96-.57,1.86Z"/><path class="cls-6" d="m18.93,43.19c0,.53.09.9.23,1.22,0,0,0,0,0-.01.31-.51.57-.96.57-1.86,0-.53-.09-.9-.23-1.22,0,0,0,0,0,.01-.31.51-.57.96-.57,1.86Z"/><path class="cls-6" d="m18.93,34.57c0,.53.09.9.23,1.22,0,0,0,0,0-.01.31-.51.57-.96.57-1.86,0-.53-.09-.9-.23-1.22,0,0,0,0,0,.01-.31.51-.57.96-.57,1.86Z"/><path class="cls-1" d="m18.82,53.64c-.21.45-.37,1-.37,1.83,0,.23.11.41.24.41s.24-.18.24-.41c0-.53.09-.9.23-1.22-.11-.19-.23-.39-.33-.61Z"/><path class="cls-1" d="m20.22,33.92c0-.82-.17-1.38-.37-1.83-.11.23-.22.42-.33.61.14.32.23.69.23,1.22,0,.9-.26,1.35-.57,1.86,0,0,0,0,0,.01.09.22.21.41.33.61,0-.01.01-.02.02-.03.34-.56.72-1.2.72-2.45Z"/><path class="cls-1" d="m19.51,31.48s0,0,0-.01c-.31-.51-.57-.96-.57-1.86,0-.23-.11-.41-.24-.41s-.24.18-.24.41c0,1.25.38,1.89.72,2.45,0,.01.01.02.02.03.12-.2.23-.39.33-.61Z"/><path class="cls-1" d="m19.51,41.32c.14.32.23.69.23,1.22,0,.9-.26,1.35-.57,1.86,0,0,0,0,0,.01.09.22.21.41.33.61,0-.01.01-.02.02-.03.34-.56.72-1.2.72-2.45,0-.82-.17-1.38-.37-1.83-.11.23-.22.42-.33.61Z"/><path class="cls-1" d="m19.51,48.72s0,0,0-.01c-.31-.51-.57-.96-.57-1.86,0-.53.09-.9.23-1.22-.11-.19-.23-.39-.33-.61-.21.45-.37,1-.37,1.83,0,1.25.38,1.89.72,2.45,0,.01.01.02.02.03.12-.2.23-.39.33-.61Z"/><path class="cls-1" d="m19.51,40.1s0,0,0-.01c-.31-.51-.57-.96-.57-1.86,0-.53.09-.9.23-1.22-.11-.19-.23-.39-.33-.61-.21.45-.37,1-.37,1.83,0,1.25.38,1.89.72,2.45,0,.01.01.02.02.03.12-.2.23-.39.33-.61Z"/><path class="cls-1" d="m19.51,49.94c.14.32.23.69.23,1.22,0,.9-.26,1.35-.57,1.86,0,0,0,0,0,.01.09.22.21.41.33.61,0-.01.01-.02.02-.03.34-.56.72-1.2.72-2.45,0-.82-.17-1.38-.37-1.83-.11.23-.22.42-.33.61Z"/><path class="cls-1" d="m19.16,35.79c-.14-.32-.23-.69-.23-1.22,0-.9.26-1.35.57-1.86,0,0,0,0,0-.01-.09-.22-.21-.41-.33-.61,0,.01-.01.02-.02.03-.34.56-.72,1.2-.72,2.45,0,.82.17,1.38.37,1.83.11-.23.22-.42.33-.61Z"/><path class="cls-1" d="m19.16,44.41c-.14-.32-.23-.69-.23-1.22,0-.9.26-1.35.57-1.86,0,0,0,0,0-.01-.09-.22-.21-.41-.33-.61,0,.01-.01.02-.02.03-.34.56-.72,1.2-.72,2.45,0,.82.17,1.38.37,1.83.11-.23.22-.42.33-.61Z"/><path class="cls-1" d="m19.85,32.09c.21-.45.37-1,.37-1.83,0-.23-.11-.41-.24-.41s-.24.18-.24.41c0,.53-.09.9-.23,1.22.11.19.23.39.33.61Z"/><path class="cls-1" d="m19.16,54.25s0,0,0,.01c.31.51.57.96.57,1.86,0,.23.11.41.24.41s.24-.18.24-.41c0-1.25-.38-1.89-.72-2.45,0-.01-.01-.02-.02-.03-.12.2-.23.39-.33.61Z"/><path class="cls-1" d="m19.16,37.01s0,0,0,.01c.31.51.57.96.57,1.86,0,.53-.09.9-.23,1.22.11.19.23.39.33.61.21-.45.37-1,.37-1.83,0-1.25-.38-1.89-.72-2.45,0-.01-.01-.02-.02-.03-.12.2-.23.39-.33.61Z"/><path class="cls-1" d="m19.16,45.63s0,0,0,.01c.31.51.57.96.57,1.86,0,.53-.09.9-.23,1.22.11.19.23.39.33.61.21-.45.37-1,.37-1.83,0-1.25-.38-1.89-.72-2.45,0-.01-.01-.02-.02-.03-.12.2-.23.39-.33.61Z"/><path class="cls-1" d="m19.16,53.03c-.14-.32-.23-.69-.23-1.22,0-.9.26-1.35.57-1.86,0,0,0,0,0-.01-.09-.22-.21-.41-.33-.61,0,.01-.01.02-.02.03-.34.56-.72,1.2-.72,2.45,0,.82.17,1.38.37,1.83.11-.23.22-.42.33-.61Z"/><path class="cls-1" d="m19.16,53.03c-.11.19-.23.39-.33.61.11.23.22.42.33.61.09-.22.21-.41.33-.61-.12-.2-.23-.39-.33-.61Z"/><path class="cls-1" d="m19.16,35.79c-.11.19-.23.39-.33.61.11.23.22.42.33.61.09-.22.21-.41.33-.61-.12-.2-.23-.39-.33-.61Z"/><path class="cls-1" d="m19.51,40.1c-.09.22-.21.41-.33.61.12.2.23.39.33.61.11-.19.23-.39.33-.61-.11-.23-.22-.42-.33-.61Z"/><path class="cls-1" d="m19.51,32.7c.11-.19.23-.39.33-.61-.11-.23-.22-.42-.33-.61-.09.22-.21.41-.33.61.12.2.23.39.33.61Z"/><path class="cls-1" d="m19.51,48.72c-.09.22-.21.41-.33.61.12.2.23.39.33.61.11-.19.23-.39.33-.61-.11-.23-.22-.42-.33-.61Z"/><path class="cls-1" d="m19.16,44.41c-.11.19-.23.39-.33.61.11.23.22.42.33.61.09-.22.21-.41.33-.61-.12-.2-.23-.39-.33-.61Z"/></g><g><g><path class="cls-1" d="m1.01,60.64c2.16,3.9,7.06,5.31,10.96,3.16,3.9-2.16,5.31-7.06,3.16-10.96-2.16-3.9-7.06-5.31-10.96-3.16s-5.31,7.06-3.16,10.96Zm9.76.45c-2.16,1.19-4.87.41-6.06-1.75-1.19-2.16-.41-4.87,1.75-6.06,2.16-1.19,4.87-.41,6.06,1.75,1.19,2.16.41,4.87-1.75,6.06Z"/><path class="cls-1" d="m3.55,59.24c1.38,2.5,4.52,3.4,7.02,2.02s3.4-4.52,2.02-7.02c-1.38-2.5-4.52-3.4-7.02-2.02-2.5,1.38-3.4,4.52-2.02,7.02Zm8.97-4.21c1.19,2.16.41,4.87-1.75,6.06s-4.87.41-6.06-1.75c-1.19-2.16-.41-4.87,1.75-6.06,2.16-1.19,4.87-.41,6.06,1.75Z"/></g><g><path class="cls-1" d="m16.2,53.44c-4.79,0-8.67,3.88-8.67,8.67s3.88,8.67,8.67,8.67,8.67-3.88,8.67-8.67-3.88-8.67-8.67-8.67Zm-5.5,8.94c0-2.65,2.15-4.79,4.79-4.79s4.79,2.15,4.79,4.79-2.15,4.79-4.79,4.79-4.79-2.15-4.79-4.79Z"/><path class="cls-1" d="m16.2,56.56c-3.06,0-5.55,2.48-5.55,5.55s2.48,5.55,5.55,5.55,5.55-2.48,5.55-5.55-2.48-5.55-5.55-5.55Zm-.7,10.62c-2.65,0-4.79-2.15-4.79-4.79s2.15-4.79,4.79-4.79,4.79,2.15,4.79,4.79-2.15,4.79-4.79,4.79Z"/></g><g><path class="cls-1" d="m24.44,51.57c-4.51,0-8.16,3.65-8.16,8.16s3.65,8.16,8.16,8.16,8.16-3.65,8.16-8.16-3.65-8.16-8.16-8.16Zm-5.17,8.42c0-2.49,2.02-4.51,4.51-4.51s4.51,2.02,4.51,4.51-2.02,4.51-4.51,4.51-4.51-2.02-4.51-4.51Z"/><path class="cls-1" d="m24.44,54.51c-2.88,0-5.22,2.34-5.22,5.22s2.34,5.22,5.22,5.22,5.22-2.34,5.22-5.22-2.34-5.22-5.22-5.22Zm-.66,9.99c-2.49,0-4.51-2.02-4.51-4.51s2.02-4.51,4.51-4.51,4.51,2.02,4.51,4.51-2.02,4.51-4.51,4.51Z"/></g></g><g id="Layer_1-3"><g id="_682347344"><line class="cls-4" x1="8.42" y1="42.45" x2="8.42" y2="16.67"/><path class="cls-3" d="m8.63,15.96l-7-4c-.23-.13-.52.03-.52.3v24.59c0,.12.07.24.17.3l6.62,3.83c.23.13.52-.03.52-.3v-23.81c0-.13.07-.25.19-.31h0c.25-.12.26-.47.02-.61Z"/><path class="cls-2" d="m9.58,42.35v-24.71c0-.12.07-.24.17-.3L31.02,5.02c.22-.13.23-.45.02-.59l-.51-.34c-.11-.07-.25-.08-.37-.01l-21.57,12.49c-.11.06-.17.18-.17.3v25.33c0,.15.1.28.24.33l.46.15c.22.07.46-.09.46-.33Z"/><path class="cls-2" d="m31.33,30.23l-21.24,12.29c-.23.13-.52-.03-.52-.3v-24.59c0-.12.07-.24.17-.3L30.98,5.05c.23-.13.52.03.52.3v24.59c0,.12-.07.24-.17.3Z"/><line class="cls-5" x1="9.58" y1="17.44" x2="8.42" y2="16.67"/><path class="cls-3" d="m9.02,16.19L1.62,11.96c-.23-.13-.23-.46,0-.6l1.42-.85L21.33.22c.11-.06.24-.06.34,0l7.38,4.22c.23.13.23.47,0,.6l-19.69,11.14c-.11.06-.24.06-.34,0Z"/></g></g></g></g></svg>