<?xml version="1.0" encoding="UTF-8"?><svg id="Layer_2" xmlns="http://www.w3.org/2000/svg" viewBox="0 0 94.42 57.32"><defs><style>.cls-1{fill:#fff;}</style></defs><g id="Layer_1-2"><g><path class="cls-1" d="m4.65,12.05c-1.51,0-2.66-.45-3.46-1.34-.8-.89-1.19-2.31-1.19-4.26V.21h2.64v6.51c0,1.14.17,1.94.52,2.39.34.45.84.68,1.5.68s1.16-.23,1.51-.68c.36-.45.54-1.25.54-2.39V.21h2.53v6.24c0,1.95-.39,3.37-1.17,4.26s-1.92,1.34-3.41,1.34Z"/><path class="cls-1" d="m11.48,11.84V.21h3.99c.64,0,1.24.06,1.8.19s1.05.33,1.46.62.75.68.99,1.16c.24.48.37,1.07.37,1.77s-.12,1.27-.37,1.76c-.24.5-.57.91-.99,1.23-.42.32-.9.56-1.44.71s-1.13.23-1.75.23h-1.44v3.94h-2.62Zm2.62-6.03h1.28c1.43,0,2.14-.62,2.14-1.85,0-.61-.19-1.03-.57-1.28-.38-.25-.93-.37-1.64-.37h-1.21v3.51Z"/><path class="cls-1" d="m24.18,11.84V2.42h-3.19V.21h9.02v2.21h-3.19v9.41h-2.64Z"/><path class="cls-1" d="m36.02,12.05c-.78,0-1.5-.14-2.15-.42s-1.2-.68-1.67-1.2c-.46-.52-.82-1.16-1.08-1.91-.26-.75-.38-1.6-.38-2.55s.13-1.8.38-2.54c.26-.74.62-1.37,1.08-1.87.46-.51,1.02-.89,1.67-1.16s1.36-.4,2.15-.4,1.5.13,2.15.4c.65.27,1.2.66,1.67,1.17.46.51.82,1.14,1.08,1.88.25.74.38,1.58.38,2.52s-.13,1.8-.38,2.55c-.26.75-.62,1.38-1.08,1.91-.46.52-1.02.92-1.67,1.2-.65.28-1.36.42-2.15.42Zm0-2.26c.8,0,1.43-.34,1.89-1.03.46-.68.7-1.61.7-2.79s-.23-2.07-.7-2.73c-.46-.65-1.09-.98-1.89-.98s-1.43.33-1.89.98c-.46.65-.7,1.56-.7,2.73s.23,2.11.7,2.79c.46.68,1.09,1.03,1.89,1.03Z"/></g><g><path class="cls-1" d="m4.55,56.79v-31.32c-1.14,0-2.65-.15-3.4-.25v-5.63c2.52-.21,4.29-1.28,5.37-2.67h5.9v39.87h-7.86Z"/><path class="cls-1" d="m35.54,27.34v18.8c0,6.18-2.21,11.19-10.3,11.19s-9.85-5.19-9.85-11.15v-18.5c0-7.16,3.52-11.11,10.11-11.11s10.04,3.98,10.04,10.77Zm-12.48-.62v20.36c0,2.3.64,3.62,2.38,3.62s2.34-1.41,2.34-3.74v-20.36c0-1.98-.54-3.4-2.34-3.4-1.7,0-2.38,1.32-2.38,3.51Z"/><path class="cls-1" d="m58.46,27.34v18.8c0,6.18-2.21,11.19-10.3,11.19s-9.85-5.19-9.85-11.15v-18.5c0-7.16,3.52-11.11,10.11-11.11s10.04,3.98,10.04,10.77Zm-12.48-.62v20.36c0,2.3.64,3.62,2.38,3.62s2.34-1.41,2.34-3.74v-20.36c0-1.98-.54-3.4-2.34-3.4-1.7,0-2.38,1.32-2.38,3.51Z"/><path class="cls-1" d="m81.37,27.34v18.8c0,6.18-2.21,11.19-10.3,11.19s-9.85-5.19-9.85-11.15v-18.5c0-7.16,3.52-11.11,10.11-11.11s10.04,3.98,10.04,10.77Zm-12.48-.62v20.36c0,2.3.64,3.62,2.38,3.62s2.34-1.41,2.34-3.74v-20.36c0-1.98-.54-3.4-2.34-3.4-1.7,0-2.38,1.32-2.38,3.51Z"/><path class="cls-1" d="m86.45,56.79l-3-20.02h4.09l.72,7.41c.25,2.58.56,5.48.7,8.03h.15c.13-2.55.45-5.29.67-8l.63-7.44h4.02l-2.96,20.02h-5.02Z"/></g></g></svg>