<?xml version="1.0" encoding="UTF-8"?><svg id="Layer_2" xmlns="http://www.w3.org/2000/svg" viewBox="0 0 28.74 37.36"><defs><style>.cls-1{fill:#fff;}</style></defs><g id="Layer_1-2"><path class="cls-1" d="m28.32,9.76L18.98.42c-.27-.27-.64-.42-1.02-.42H2.87C1.29,0,0,1.29,0,2.87v31.62c0,1.59,1.29,2.87,2.87,2.87h22.99c1.59,0,2.87-1.29,2.87-2.87V10.78c0-.38-.15-.75-.42-1.02Zm-9.64,17.54H7.19c-.79,0-1.44-.64-1.44-1.44s.64-1.44,1.44-1.44h11.5c.79,0,1.44.64,1.44,1.44s-.64,1.44-1.44,1.44Zm2.87-5.75H7.19c-.79,0-1.44-.64-1.44-1.44s.64-1.44,1.44-1.44h14.37c.79,0,1.44.64,1.44,1.44s-.64,1.44-1.44,1.44Zm-2.87-10.06c-.79,0-1.44-.64-1.44-1.44V2.74l8.76,8.76h-7.32Z"/></g></svg>