<svg viewBox="0 0 32 19" fill="none" xmlns="http://www.w3.org/2000/svg">
<path d="M31.9559 19C29.4998 19 28.7241 14.8955 27.7418 9.69873C27.2749 7.23016 26.4141 2.67314 25.5721 2.12929C24.7302 2.67315 23.8684 7.23028 23.4024 9.69873C22.4196 14.895 21.644 19 19.1874 19C16.7323 19 15.9576 14.8955 14.9763 9.69923C14.5104 7.23117 13.6496 2.67653 12.8086 2.12879C11.9667 2.67462 11.1059 7.23079 10.6394 9.69923C9.65664 14.895 8.8819 19 6.42628 19C3.97117 19 3.19599 14.8955 2.21419 9.69873C1.73903 7.18505 0.855946 2.50727 0 2.10328L0.0464515 0C2.50157 0 3.27625 4.10452 4.25756 9.30077C4.72352 11.7688 5.58434 16.3235 6.42529 16.8712C7.26675 16.3244 8.12752 11.7692 8.59352 9.30177C9.57578 4.10515 10.3505 0.000502359 12.8061 0.000502359C15.2612 0.000502359 16.0364 4.10502 17.0182 9.30177C17.4842 11.7698 18.3445 16.3245 19.186 16.8712C20.0279 16.3264 20.8897 11.7692 21.3557 9.30077C22.3379 4.10414 23.1135 0 25.5698 0C28.026 0 28.8015 4.10452 29.7838 9.30127C30.259 11.8149 31.1436 16.4942 32 16.8967L31.9559 19Z" fill="#ffffff"/>
</svg>
