<svg viewBox="0 0 18 23" fill="none" xmlns="http://www.w3.org/2000/svg">
<path d="M3.30497 0H14.695C16.5201 0 18 1.50525 18 3.3627V19.6371C18 21.4944 16.5197 22.9998 14.695 22.9998L9.00021 23H3.30497C1.48025 23 -7.04027e-07 21.4946 -7.04027e-07 19.6373L0.000164578 3.36287C0.000164578 1.50542 1.48025 0.000168143 3.30497 0.000168143L3.30497 0ZM10.7232 5.05425H7.27751C6.9124 5.05425 6.61638 5.35564 6.61638 5.72699C6.61638 6.09851 6.9124 6.39938 7.27751 6.39938H10.7232C11.0883 6.39938 11.3843 6.0985 11.3843 5.72699C11.3841 5.35564 11.0883 5.05425 10.7232 5.05425V5.05425ZM3.42302 18.506H14.5774C14.9423 18.506 15.2382 18.2051 15.2382 17.8332C15.2382 17.4622 14.9422 17.1609 14.5774 17.1609H3.42345C3.0585 17.1609 2.76266 17.4622 2.76266 17.8332C2.76249 18.2049 3.05851 18.506 3.42328 18.506H3.42302ZM3.42302 15.4793H14.5774C14.9423 15.4793 15.2382 15.1785 15.2382 14.8066C15.2382 14.4356 14.9422 14.1342 14.5774 14.1342H3.42345C3.0585 14.1342 2.76266 14.4356 2.76266 14.8066C2.76249 15.1783 3.05851 15.4793 3.42328 15.4793H3.42302ZM3.42302 12.7889H14.5774C14.9423 12.7889 15.2382 12.488 15.2382 12.1162C15.2382 11.7451 14.9422 11.4438 14.5774 11.4438H3.42345C3.0585 11.4438 2.76266 11.7452 2.76266 12.1162C2.76249 12.488 3.05851 12.7889 3.42328 12.7889H3.42302ZM3.42302 9.76225H14.5774C14.9423 9.76225 15.2382 9.46137 15.2382 9.08951C15.2382 8.7185 14.9422 8.41712 14.5774 8.41712H3.42345C3.0585 8.41712 2.76266 8.71851 2.76266 9.08951C2.76249 9.46137 3.05851 9.76225 3.42328 9.76225H3.42302Z" fill="#ffffff"/>
</svg>
