<?xml version="1.0" encoding="UTF-8"?><svg id="Layer_2" xmlns="http://www.w3.org/2000/svg" viewBox="0 0 37.75 40.73"><defs><style>.cls-1{fill:#fff;}</style></defs><g id="Layer_1-2"><path class="cls-1" d="m37.29,39.82h-8.87v-2.21h-8.15v-2.73c0-.14-.06-.28-.16-.37l-3.89-3.89v-11.46c0-.14-.06-.28-.16-.37l-4.02-4.02V.99c0-.29-.24-.53-.53-.53s-.53.24-.53.53v13.98c0,.14.06.28.16.37l4.02,4.02v11.46c0,.14.06.28.16.37l3.89,3.89v2.51h0v2.21H.91V.46c0-.25-.2-.46-.46-.46s-.46.2-.46.46v40.27h37.29c.25,0,.46-.2.46-.46s-.2-.46-.46-.46Z"/></g></svg>