<?xml version="1.0" encoding="UTF-8"?>
<svg id="Layer_2" data-name="Layer 2" xmlns="http://www.w3.org/2000/svg" viewBox="0 0 53.5 48.92">
  <defs>
    <style>
      .cls-1 {
        fill: none;
        stroke: #fff;
        stroke-linecap: round;
        stroke-linejoin: round;
        stroke-width: 3.21px;
      }

      .cls-2 {
        fill: #0158b7;
      }

      .cls-2, .cls-3 {
        stroke-width: 0px;
      }

      .cls-3 {
        fill: #fff;
      }
    </style>
  </defs>
  <g id="Layer_1-2" data-name="Layer 1">
    <g>
      <g>
        <rect class="cls-3" x="1.61" y="1.61" width="50.29" height="45.71"/>
        <rect class="cls-1" x="1.61" y="1.61" width="50.29" height="45.71"/>
      </g>
      <path class="cls-2" d="M44.26,28.47H9.24c-.59,0-1.08-.6-1.08-1.35v-5.33c0-.74.48-1.35,1.08-1.35h35.02c.59,0,1.08.6,1.08,1.35v5.33c0,.74-.48,1.35-1.08,1.35Z"/>
      <g>
        <path class="cls-3" d="M13.62,26.31v-.7h.81v-2.15h-.7v-.53c.2-.04.37-.08.52-.14.14-.05.28-.12.41-.2h.63v3.02h.7v.7h-2.36Z"/>
        <path class="cls-3" d="M16.85,26.31v-.49c.24-.22.46-.43.65-.62.2-.19.37-.38.51-.54.14-.17.25-.33.33-.47.08-.15.12-.29.12-.42,0-.18-.05-.32-.14-.42-.09-.1-.22-.14-.39-.14-.14,0-.26.04-.36.11s-.2.17-.3.27l-.47-.46c.18-.2.37-.34.56-.44.19-.1.42-.15.68-.15.18,0,.35.03.5.08.15.06.28.14.39.24.11.1.19.23.25.37s.09.31.09.49c0,.16-.03.32-.1.48-.07.16-.16.32-.27.49-.11.16-.24.32-.38.49-.14.16-.29.32-.44.48.09-.01.2-.02.31-.03.12,0,.22-.01.31-.01h.75v.73h-2.62Z"/>
        <path class="cls-3" d="M21.48,26.38c-.3,0-.56-.05-.77-.14s-.38-.22-.52-.38l.4-.54c.11.11.24.2.37.27.13.07.28.11.44.11.18,0,.33-.04.44-.11.11-.08.16-.18.16-.32,0-.08-.01-.16-.04-.22s-.08-.12-.16-.17c-.07-.04-.18-.08-.3-.11-.13-.02-.29-.04-.5-.04v-.61c.17,0,.31-.01.42-.04.11-.02.2-.06.27-.1.07-.04.12-.1.15-.16s.04-.13.04-.2c0-.13-.04-.23-.12-.3-.08-.07-.19-.11-.34-.11-.13,0-.25.03-.36.09-.11.06-.22.14-.34.24l-.43-.53c.17-.15.35-.26.54-.35.19-.08.4-.13.63-.13.19,0,.37.02.52.07.16.04.29.11.4.2.11.09.2.19.26.32.06.12.09.27.09.43,0,.2-.05.36-.16.5-.11.13-.26.24-.46.33v.02c.21.06.39.17.53.32.14.15.21.35.21.59,0,.17-.04.32-.11.46-.07.13-.17.25-.3.34-.12.09-.27.16-.44.21-.17.05-.35.07-.53.07Z"/>
        <path class="cls-3" d="M25.21,26.31v-.89h-1.61v-.59l1.36-2.23h1.05v2.17h.43v.66h-.43v.89h-.8ZM24.43,24.77h.78v-.6c0-.12,0-.26.01-.42s.02-.29.02-.41h-.02c-.05.1-.1.2-.15.31s-.1.21-.16.32l-.49.81Z"/>
        <path class="cls-3" d="M28.36,26.38c-.3,0-.56-.05-.77-.15s-.39-.22-.54-.37l.39-.54c.11.1.23.19.37.26s.28.11.44.11c.19,0,.34-.05.46-.15.11-.1.17-.24.17-.43s-.05-.33-.16-.43c-.11-.1-.25-.15-.42-.15-.05,0-.1,0-.15,0s-.08.02-.13.03c-.04.02-.08.04-.13.06s-.09.05-.15.09l-.39-.25.1-1.88h2.11v.73h-1.36l-.06.7c.07-.03.14-.05.2-.07.06-.01.14-.02.21-.02.16,0,.31.02.45.07.14.05.27.12.38.21s.19.21.26.36.09.32.09.51-.04.39-.11.55c-.07.16-.17.3-.3.41-.12.11-.27.2-.44.25-.17.06-.34.09-.52.09Z"/>
        <path class="cls-3" d="M31.99,26.38c-.18,0-.35-.04-.52-.11-.17-.07-.32-.18-.45-.33-.13-.15-.23-.34-.31-.57-.08-.23-.12-.51-.12-.84,0-.35.04-.65.13-.9.08-.25.19-.46.33-.63.14-.16.3-.29.48-.37.18-.08.37-.12.56-.12.25,0,.46.04.64.13.18.09.33.19.44.31l-.45.52c-.07-.07-.15-.13-.26-.18-.1-.05-.21-.08-.32-.08-.1,0-.2.02-.29.06s-.17.1-.24.2c-.07.09-.12.21-.17.36s-.07.33-.08.54c.05-.06.1-.12.16-.17s.13-.09.19-.12c.07-.03.13-.06.2-.08s.13-.03.19-.03c.16,0,.31.02.44.07s.25.12.35.21.18.21.23.36c.05.14.08.31.08.51s-.03.37-.1.52-.15.28-.27.39c-.11.11-.24.19-.39.25-.15.06-.31.08-.48.08ZM31.97,25.74c.13,0,.24-.05.33-.14.09-.1.14-.25.14-.46,0-.2-.05-.34-.14-.42-.09-.08-.21-.12-.35-.12-.1,0-.2.03-.3.08-.1.06-.19.15-.27.28.02.15.05.27.09.37.04.1.08.18.13.24s.11.1.17.13.12.04.19.04Z"/>
        <path class="cls-3" d="M34.71,26.31c.02-.31.04-.59.08-.85.04-.26.1-.51.18-.74.08-.24.17-.47.29-.69.12-.23.27-.46.44-.7h-1.67v-.73h2.59v.53c-.21.26-.39.51-.52.73-.13.23-.23.46-.3.71-.07.24-.12.5-.16.78-.03.28-.05.6-.07.96h-.87Z"/>
        <path class="cls-3" d="M38.74,26.38c-.19,0-.36-.02-.52-.07-.16-.05-.29-.12-.41-.21-.12-.09-.2-.2-.27-.32s-.1-.26-.1-.42c0-.23.06-.41.18-.56.12-.14.27-.26.45-.36v-.02c-.14-.11-.26-.23-.36-.37-.09-.14-.14-.31-.14-.51,0-.16.03-.3.09-.42.06-.13.14-.23.25-.32.1-.09.23-.16.38-.21.15-.05.3-.07.48-.07s.32.02.46.07c.14.05.26.12.36.21.1.09.17.19.23.32.05.13.08.27.08.42,0,.18-.05.34-.15.48-.1.14-.21.25-.34.34v.02c.18.1.33.22.46.37.12.15.19.35.19.6,0,.15-.03.28-.09.41s-.15.23-.27.32c-.12.09-.25.16-.42.22-.16.05-.34.08-.54.08ZM38.76,25.79c.14,0,.26-.04.36-.11s.14-.19.14-.35c0-.08-.02-.15-.06-.21-.04-.06-.09-.11-.16-.16s-.15-.09-.25-.14-.2-.09-.32-.14c-.08.08-.15.17-.2.27-.05.1-.08.21-.08.32,0,.16.06.29.17.38.11.09.25.14.4.14ZM38.98,24.15c.15-.17.23-.36.23-.54,0-.14-.04-.26-.12-.35s-.19-.13-.33-.13c-.11,0-.21.04-.29.11s-.12.18-.12.32c0,.15.06.27.18.36.12.09.27.17.46.24Z"/>
      </g>
      <g>
        <circle class="cls-2" cx="22.06" cy="33.31" r="1.28"/>
        <circle class="cls-2" cx="26.75" cy="33.31" r="1.28"/>
        <circle class="cls-2" cx="31.44" cy="33.31" r="1.28"/>
      </g>
    </g>
  </g>
</svg>