<?xml version="1.0" encoding="UTF-8"?>
<svg id="Layer_2" data-name="Layer 2" xmlns="http://www.w3.org/2000/svg" viewBox="0 0 67.83 68.74">
  <defs>
    <style>
      .cls-1, .cls-2 {
        fill-rule: evenodd;
      }

      .cls-1, .cls-2, .cls-3 {
        stroke-width: 0px;
      }

      .cls-1, .cls-3 {
        fill: #fff;
      }

      .cls-2 {
        fill: #0158b7;
      }
    </style>
  </defs>
  <g id="Layer_1-2" data-name="Layer 1">
    <g>
      <g>
        <path class="cls-1" d="M62.45,19.99c-1.12,25.97-12.52,41.72-31.16,48.75C11.11,61.37-.83,43.32.05,9.57c10.62.56,21.03-1.73,31.12-9.57,8.13,5.15,15.7,8.41,22.6,9.63-.07.46-.11.94-.11,1.42,0,4.88,3.92,8.86,8.79,8.94Z"/>
        <path class="cls-2" d="M30.15,13.39c-7.12,4.51-13.55,6.65-19.07,6.14-.96,19.49,6.24,31.01,18.99,35.81.08-.03.16-.06.24-.09V13.52l-.16-.13Z"/>
      </g>
      <polygon class="cls-3" points="61.08 16.81 61.08 12.24 56.7 12.24 56.7 10.05 61.08 10.05 61.08 5.67 63.27 5.67 63.27 10.05 67.83 10.05 67.83 12.24 63.27 12.24 63.27 16.81 61.08 16.81"/>
    </g>
  </g>
</svg>