<?xml version="1.0" encoding="UTF-8"?><svg id="Layer_2" xmlns="http://www.w3.org/2000/svg" viewBox="0 0 68.87 33.06"><defs><style>.cls-1{fill:#fff;}</style></defs><g id="Layer_1-2"><g><rect class="cls-1" y=".5" width="32.19" height="32.07" rx="2.96" ry="2.96"/><path class="cls-1" d="m68.4,14.14c-.3-.31-.71-.49-1.14-.48h-2.48c-.14-.55-.3-1.09-.5-1.61-.2-.52-.43-1.03-.7-1.52l1.91-1.93c.31-.29.49-.69.49-1.12,0-.43-.17-.85-.49-1.15l-2.36-2.35h.02c-.61-.63-1.62-.65-2.26-.03-.01.01-.02.02-.04.03l-1.74,1.71c-.48-.3-.97-.57-1.48-.8-.52-.24-1.04-.45-1.58-.62V1.61c.01-.43-.16-.85-.47-1.15-.3-.31-.72-.47-1.15-.47h-3.36c-.42,0-.83.16-1.13.47-.31.3-.49.72-.48,1.15v2.48c-.56.13-1.1.29-1.63.5-.52.19-1.02.41-1.5.67l-1.94-1.91c-.29-.31-.69-.49-1.12-.48-.43,0-.85.18-1.15.48l-2.35,2.34c-.32.3-.49.71-.49,1.15,0,.43.17.85.49,1.14l1.74,1.75c-.3.48-.56.99-.78,1.51-.24.51-.45,1.04-.62,1.58h-2.7c-.43-.01-.85.16-1.15.47-.32.3-.5.71-.5,1.15v3.36c0,.43.17.83.47,1.13.3.31.72.49,1.15.48h2.48c.13.56.29,1.1.5,1.63.21.52.44,1.03.7,1.53l-1.91,1.9c-.32.29-.49.7-.49,1.12,0,.43.17.85.49,1.14l2.36,2.39c.31.29.72.46,1.14.45.43,0,.84-.16,1.15-.45l1.75-1.78c.47.3.97.57,1.48.8.52.24,1.04.45,1.58.62v2.68c-.01.88.69,1.6,1.56,1.61h3.42c.42,0,.83-.17,1.12-.47.32-.3.49-.72.49-1.15v-2.45c.55-.13,1.1-.29,1.63-.5.53-.21,1.04-.44,1.54-.7l1.9,1.91c.6.63,1.59.65,2.22.05.02-.02.03-.03.05-.05l2.38-2.36c.3-.31.46-.72.45-1.15,0-.43-.16-.84-.45-1.14l-1.77-1.75c.3-.47.57-.97.8-1.48.24-.52.44-1.04.62-1.58h2.68c.89,0,1.61-.71,1.61-1.6v-3.38c0-.42-.17-.83-.47-1.13Zm-10,4.99c-.33.78-.81,1.5-1.4,2.1-.61.6-1.32,1.07-2.1,1.41-1.65.68-3.49.68-5.14,0-.78-.34-1.49-.82-2.09-1.43-1.88-1.91-2.44-4.76-1.41-7.23.34-.78.81-1.48,1.41-2.08.6-.59,1.31-1.07,2.09-1.41.81-.34,1.69-.51,2.57-.51v-.03c.88,0,1.75.17,2.57.51.78.35,1.5.83,2.1,1.44.59.61,1.07,1.32,1.4,2.1.69,1.64.69,3.49,0,5.13Z"/></g></g></svg>