<?xml version="1.0" encoding="UTF-8"?><svg id="Layer_2" xmlns="http://www.w3.org/2000/svg" viewBox="0 0 104.24 69.6"><defs><style>.cls-1{fill:#fff;}.cls-2{fill:#9a9da0;}.cls-2,.cls-3{fill-rule:evenodd;}.cls-3{fill:#f2f2f2;}</style></defs><g id="Layer_1-2"><g><g><path class="cls-2" d="m33.99,0h-6.82c-.71,0-1.28.54-1.28,1.21v16.27h9.39V1.21c0-.67-.58-1.21-1.28-1.21Zm-3.5,6.19c-1.38,0-2.5-1.05-2.5-2.35s1.12-2.35,2.5-2.35,2.5,1.06,2.5,2.35-1.12,2.35-2.5,2.35Z"/><path class="cls-3" d="m32.29,2.93h-6.82c-.71,0-1.28.54-1.28,1.21v11.89h9.39V4.14c0-.67-.58-1.21-1.28-1.21Zm-3.5,5.67c-1.14,0-2.06-.86-2.06-1.93s.92-1.94,2.06-1.94,2.06.87,2.06,1.94-.92,1.93-2.06,1.93Z"/></g><g><path class="cls-2" d="m48.12,0h-6.82c-.71,0-1.28.54-1.28,1.21v16.27h9.39V1.21c0-.67-.58-1.21-1.28-1.21Zm-3.5,6.19c-1.38,0-2.5-1.05-2.5-2.35s1.12-2.35,2.5-2.35,2.5,1.06,2.5,2.35-1.12,2.35-2.5,2.35Z"/><path class="cls-3" d="m46.42,2.93h-6.82c-.71,0-1.28.54-1.28,1.21v11.89h9.39V4.14c0-.67-.58-1.21-1.28-1.21Zm-3.5,5.67c-1.14,0-2.06-.86-2.06-1.93s.92-1.94,2.06-1.94,2.06.87,2.06,1.94-.92,1.93-2.06,1.93Z"/></g><g><path class="cls-2" d="m62.26,0h-6.82c-.71,0-1.28.54-1.28,1.21v16.27h9.39V1.21c0-.67-.58-1.21-1.28-1.21Zm-3.5,6.19c-1.38,0-2.5-1.05-2.5-2.35s1.12-2.35,2.5-2.35,2.5,1.06,2.5,2.35-1.12,2.35-2.5,2.35Z"/><path class="cls-3" d="m60.55,2.93h-6.82c-.71,0-1.28.54-1.28,1.21v11.89h9.39V4.14c0-.67-.58-1.21-1.28-1.21Zm-3.5,5.67c-1.14,0-2.06-.86-2.06-1.93s.92-1.94,2.06-1.94,2.06.87,2.06,1.94-.92,1.93-2.06,1.93Z"/></g><g><path class="cls-2" d="m53.73,67.2h6.82c.71,0,1.28-.54,1.28-1.21v-16.27h-9.39v16.27c0,.67.58,1.21,1.28,1.21Zm3.5-6.19c1.38,0,2.5,1.05,2.5,2.35s-1.12,2.35-2.5,2.35-2.5-1.06-2.5-2.35,1.12-2.35,2.5-2.35Z"/><path class="cls-3" d="m55.43,64.27h6.82c.71,0,1.28-.54,1.28-1.21v-11.89h-9.39v11.89c0,.67.58,1.21,1.28,1.21Zm3.5-5.67c1.14,0,2.06.86,2.06,1.93s-.92,1.94-2.06,1.94-2.06-.87-2.06-1.94.92-1.93,2.06-1.93Z"/></g><g><path class="cls-2" d="m39.6,67.2h6.82c.71,0,1.28-.54,1.28-1.21v-16.27h-9.39v16.27c0,.67.58,1.21,1.28,1.21Zm3.5-6.19c1.38,0,2.5,1.05,2.5,2.35s-1.12,2.35-2.5,2.35-2.5-1.06-2.5-2.35,1.12-2.35,2.5-2.35Z"/><path class="cls-3" d="m41.3,64.27h6.82c.71,0,1.28-.54,1.28-1.21v-11.89h-9.39v11.89c0,.67.58,1.21,1.28,1.21Zm3.5-5.67c1.14,0,2.06.86,2.06,1.93s-.92,1.94-2.06,1.94-2.06-.87-2.06-1.94.92-1.93,2.06-1.93Z"/></g><g><path class="cls-2" d="m25.47,67.2h6.82c.71,0,1.28-.54,1.28-1.21v-16.27h-9.39v16.27c0,.67.58,1.21,1.28,1.21Zm3.5-6.19c1.38,0,2.5,1.05,2.5,2.35s-1.12,2.35-2.5,2.35-2.5-1.06-2.5-2.35,1.12-2.35,2.5-2.35Z"/><path class="cls-3" d="m27.17,64.27h6.82c.71,0,1.28-.54,1.28-1.21v-11.89h-9.39v11.89c0,.67.58,1.21,1.28,1.21Zm3.5-5.67c1.14,0,2.06.86,2.06,1.93s-.92,1.94-2.06,1.94-2.06-.87-2.06-1.94.92-1.93,2.06-1.93Z"/></g><path class="cls-1" d="m104.24,15.94l-.14,36.04h-10.26v-15.88c0-4.66-3.78-8.44-8.44-8.44h-3.65c-4.66,0-8.44,3.78-8.44,8.44v15.88H0V15.94h104.24Z"/><rect class="cls-1" x="75.91" y="30.06" width="15.43" height="39.54" rx="6.54" ry="6.54"/></g></g></svg>