<?xml version="1.0" encoding="UTF-8"?><svg id="Layer_2" xmlns="http://www.w3.org/2000/svg" viewBox="0 0 85.75 31.48"><defs><style>.cls-1{fill:#fff;}.cls-2{isolation:isolate;}</style></defs><g id="Layer_2-2"><g class="cls-2"><path class="cls-1" d="m0,31.48L9.85,0h8.54l9.85,31.48h-7.53l-1.93-7.48h-9.61l-1.93,7.48H0Zm11.39-15.93l-.77,2.9h6.71l-.72-2.9c-.45-1.58-.89-3.25-1.3-5.02-.42-1.77-.84-3.48-1.25-5.12h-.19c-.39,1.67-.78,3.39-1.18,5.14-.4,1.75-.83,3.42-1.28,5Z"/></g><g class="cls-2"><path class="cls-1" d="m30.72,31.48V0h7.77l5.07,14c.32.93.63,1.89.92,2.87.29.98.59,1.96.92,2.92h.19c.32-.97.62-1.94.89-2.92.27-.98.57-1.94.89-2.87L52.35,0h7.72v31.48h-6.47v-11.54c0-.77.03-1.62.1-2.56.06-.93.14-1.88.24-2.82s.19-1.88.29-2.8c.1-.92.19-1.76.29-2.53h-.19l-2.56,7.48-4.49,12.02h-3.91l-4.49-12.02-2.51-7.48h-.19c.1.77.19,1.62.29,2.53.1.92.19,1.85.29,2.8.1.95.18,1.89.24,2.82s.1,1.79.1,2.56v11.54h-6.37Z"/></g><g class="cls-2"><path class="cls-1" d="m65.91,31.48V0h19.84v5.99h-12.75v7.29h10.91v5.99h-10.91v12.21h-7.1Z"/></g></g></svg>