<?xml version="1.0" encoding="UTF-8"?><svg id="Layer_2" xmlns="http://www.w3.org/2000/svg" viewBox="0 0 124.36 39.33"><defs><style>.cls-1{letter-spacing:-.02em;}.cls-2,.cls-3{fill:#fff;}.cls-4{letter-spacing:-.02em;}.cls-5{letter-spacing:-.02em;}.cls-6{letter-spacing:-.02em;}.cls-7{letter-spacing:-.02em;}.cls-3{font-family:SourceSansPro-Bold, 'Source Sans Pro';font-size:14.05px;font-weight:700;}</style></defs><g id="Layer_1-2"><text class="cls-3" transform="translate(0 25.28)"><tspan class="cls-6" x="0" y="0">I</tspan><tspan class="cls-5" x="3.91" y="0">N</tspan></text><text class="cls-3" transform="translate(98.54 22.58)"><tspan class="cls-7" x="0" y="0">O</tspan><tspan class="cls-1" x="9.28" y="0">U</tspan><tspan class="cls-4" x="18.29" y="0">T</tspan></text><g><path class="cls-2" d="m35.86,35.68v-11.08h-16.32c-1.28,0-2.32-1.04-2.32-2.32v-2.65c0-1.28,1.04-2.32,2.32-2.32h16.32V0h35.63l-35.63,35.68Z"/><path class="cls-2" d="m93.38,17.06v2.65c0,1.28-1.04,2.32-2.32,2.32h-16.32s0,17.29,0,17.29h-36.98L74.74,2.35v12.39h16.32c1.28,0,2.32,1.04,2.32,2.32Z"/></g></g></svg>