<?xml version="1.0" encoding="UTF-8"?><svg id="Layer_2" xmlns="http://www.w3.org/2000/svg" viewBox="0 0 63.72 59.52"><defs><style>.cls-1{fill:#fff;}</style></defs><g id="Layer_1-2"><g><path class="cls-1" d="m12.02,45.57H3.5c-.22,0-.39-.18-.39-.39s.18-.39.39-.39h8.13v-12c0-.22.18-.39.39-.39s.39.18.39.39v12.4c0,.22-.18.39-.39.39Z"/><path class="cls-1" d="m20,51.35c-.22,0-.39-.18-.39-.39v-18.2c0-.22.18-.39.39-.39s.39.18.39.39v18.2c0,.22-.18.39-.39.39Z"/><path class="cls-1" d="m29.66,56.42c-.22,0-.39-.18-.39-.39v-23.27c0-.22.18-.39.39-.39s.39.18.39.39v23.27c0,.22-.18.39-.39.39Z"/><path class="cls-1" d="m38.41,51.35c-.22,0-.39-.18-.39-.39v-18.2c0-.22.18-.39.39-.39s.39.18.39.39v18.2c0,.22-.18.39-.39.39Z"/><path class="cls-1" d="m60.22,45.68h-14.43c-.22,0-.39-.18-.39-.39v-12.54c0-.22.18-.39.39-.39s.39.18.39.39v12.14h14.04c.22,0,.39.18.39.39s-.18.39-.39.39Z"/><g><circle class="cls-1" cx="61.77" cy="45.52" r="1.55" transform="translate(3.28 95.18) rotate(-76.72)"/><path class="cls-1" d="m61.77,47.46c-1.07,0-1.95-.87-1.95-1.95s.87-1.95,1.95-1.95,1.95.87,1.95,1.95-.87,1.95-1.95,1.95Zm0-3.11c-.64,0-1.16.52-1.16,1.16s.52,1.16,1.16,1.16,1.16-.52,1.16-1.16-.52-1.16-1.16-1.16Z"/></g><g><path class="cls-1" d="m39.97,52.51c0,.86-.7,1.55-1.55,1.55s-1.55-.7-1.55-1.55.7-1.55,1.55-1.55,1.55.7,1.55,1.55Z"/><path class="cls-1" d="m38.41,54.46c-1.07,0-1.95-.87-1.95-1.95s.87-1.95,1.95-1.95,1.95.87,1.95,1.95-.87,1.95-1.95,1.95Zm0-3.11c-.64,0-1.16.52-1.16,1.16s.52,1.16,1.16,1.16,1.16-.52,1.16-1.16-.52-1.16-1.16-1.16Z"/></g><g><circle class="cls-1" cx="29.66" cy="57.58" r="1.55"/><path class="cls-1" d="m29.66,59.52c-1.07,0-1.95-.87-1.95-1.95s.87-1.95,1.95-1.95,1.95.87,1.95,1.95-.87,1.95-1.95,1.95Zm0-3.11c-.64,0-1.16.52-1.16,1.16s.52,1.16,1.16,1.16,1.16-.52,1.16-1.16-.52-1.16-1.16-1.16Z"/></g><g><path class="cls-1" d="m21.55,52.51c0,.86-.7,1.55-1.55,1.55s-1.55-.7-1.55-1.55.7-1.55,1.55-1.55,1.55.7,1.55,1.55Z"/><path class="cls-1" d="m20,54.46c-1.07,0-1.95-.87-1.95-1.95s.87-1.95,1.95-1.95,1.95.87,1.95,1.95-.87,1.95-1.95,1.95Zm0-3.11c-.64,0-1.16.52-1.16,1.16s.52,1.16,1.16,1.16,1.16-.52,1.16-1.16-.52-1.16-1.16-1.16Z"/></g><g><circle class="cls-1" cx="1.95" cy="45.17" r="1.55" transform="translate(-10.28 1.64) rotate(-13.22)"/><path class="cls-1" d="m1.95,47.12c-1.07,0-1.95-.87-1.95-1.95s.87-1.95,1.95-1.95,1.95.87,1.95,1.95-.87,1.95-1.95,1.95Zm0-3.11c-.64,0-1.16.52-1.16,1.16s.52,1.16,1.16,1.16,1.16-.52,1.16-1.16-.52-1.16-1.16-1.16Z"/></g><path class="cls-1" d="m58.97,22.91c.06-.51.09-1.02.09-1.55,0-7.56-6.01-13.68-13.42-13.68-.94,0-1.86.1-2.74.29-1.44-4.62-5.67-7.97-10.67-7.97s-9.14,3.27-10.62,7.81c-.59-.08-1.19-.13-1.81-.13-6.69,0-12.23,4.99-13.25,11.53-3.33.96-5.77,4.07-5.77,7.77h0c0,4.46,3.54,8.07,7.91,8.07h43.43c4.37,0,7.91-3.61,7.91-8.07h0c0-1.48-.39-2.87-1.08-4.06Z"/></g></g></svg>