<?xml version="1.0" encoding="UTF-8"?>
<svg id="Layer_2" xmlns="http://www.w3.org/2000/svg" viewBox="0 0 50.31 50.31">
  <defs>
    <style>
      .cls-1 {
        fill: #fff;
      }
    </style>
  </defs>
  <g id="Layer_1-2" data-name="Layer_1">
    <path class="cls-1" d="M4.57,50.31c-1.26,0-2.33-.45-3.23-1.34-.9-.9-1.34-1.97-1.34-3.23v-4.57c0-.65.22-1.19.66-1.63s.98-.66,1.63-.66,1.19.22,1.63.66.66.98.66,1.63v4.57h4.57c.65,0,1.19.22,1.63.66s.66.98.66,1.63-.22,1.19-.66,1.63-.98.66-1.63.66h-4.57ZM45.73,50.31h-4.57c-.65,0-1.19-.22-1.63-.66s-.66-.98-.66-1.63.22-1.19.66-1.63.98-.66,1.63-.66h4.57v-4.57c0-.65.22-1.19.66-1.63s.98-.66,1.63-.66,1.19.22,1.63.66.66.98.66,1.63v4.57c0,1.26-.45,2.33-1.34,3.23-.9.9-1.97,1.34-3.23,1.34ZM25.15,40.02c-4.04,0-7.77-1.07-11.2-3.2-3.43-2.13-6.12-5.05-8.06-8.75-.23-.46-.4-.92-.51-1.4s-.17-.96-.17-1.46c0-.53.06-1.05.17-1.54.11-.5.29-.97.51-1.43,1.94-3.7,4.63-6.61,8.06-8.75,3.43-2.13,7.16-3.2,11.2-3.2s7.77,1.07,11.2,3.2c3.43,2.13,6.12,5.05,8.06,8.75.23.46.4.92.51,1.4.11.48.17.98.17,1.51s-.06,1.04-.17,1.51-.29.94-.51,1.4c-1.94,3.7-4.63,6.61-8.06,8.75-3.43,2.13-7.16,3.2-11.2,3.2ZM25.15,33.16c2.21,0,4.1-.78,5.66-2.34s2.34-3.45,2.34-5.66-.78-4.1-2.34-5.66-3.45-2.34-5.66-2.34-4.1.78-5.66,2.34-2.34,3.45-2.34,5.66.78,4.1,2.34,5.66,3.45,2.34,5.66,2.34ZM25.15,28.58c-.95,0-1.76-.33-2.43-1s-1-1.48-1-2.43.33-1.76,1-2.43c.67-.67,1.48-1,2.43-1s1.76.33,2.43,1c.67.67,1,1.48,1,2.43s-.33,1.76-1,2.43c-.67.67-1.48,1-2.43,1ZM50.31,4.57v4.57c0,.65-.22,1.19-.66,1.63s-.98.66-1.63.66-1.19-.22-1.63-.66-.66-.98-.66-1.63v-4.57h-4.57c-.65,0-1.19-.22-1.63-.66s-.66-.98-.66-1.63.22-1.19.66-1.63.98-.66,1.63-.66h4.57c1.26,0,2.33.45,3.23,1.34s1.34,1.97,1.34,3.23ZM4.57,0h4.57c.65,0,1.19.22,1.63.66s.66.98.66,1.63-.22,1.19-.66,1.63-.98.66-1.63.66h-4.57v4.57c0,.65-.22,1.19-.66,1.63s-.98.66-1.63.66-1.19-.22-1.63-.66-.66-.98-.66-1.63v-4.57c0-1.26.45-2.33,1.34-3.23.9-.9,1.97-1.34,3.23-1.34Z"/>
  </g>
</svg>