<?xml version="1.0" encoding="UTF-8"?>
<svg id="Layer_2" xmlns="http://www.w3.org/2000/svg" viewBox="0 0 57.47 50.4">
  <defs>
    <style>
      .cls-1 {
        fill: #fff;
      }
    </style>
  </defs>
  <g id="Layer_1-2" data-name="Layer_1">
    <path class="cls-1" d="M2.77,50.4c-.51,0-.98-.13-1.4-.38-.42-.26-.75-.59-.98-1.01s-.36-.87-.38-1.36.1-.97.38-1.43L26.29,1.4c.28-.47.64-.82,1.08-1.05s.9-.35,1.36-.35.92.12,1.36.35.8.58,1.08,1.05l25.9,44.8c.28.47.41.94.38,1.43s-.15.94-.38,1.36-.56.76-.98,1.01c-.42.26-.89.38-1.4.38H2.77ZM28.74,42c.79,0,1.46-.27,1.99-.8.54-.54.8-1.2.8-1.99s-.27-1.46-.8-1.99c-.54-.54-1.2-.8-1.99-.8s-1.46.27-1.99.8-.8,1.2-.8,1.99.27,1.46.8,1.99c.54.54,1.2.8,1.99.8ZM28.74,33.6c.79,0,1.46-.27,1.99-.8.54-.54.8-1.2.8-1.99v-8.4c0-.79-.27-1.46-.8-1.99-.54-.54-1.2-.8-1.99-.8s-1.46.27-1.99.8-.8,1.2-.8,1.99v8.4c0,.79.27,1.46.8,1.99s1.2.8,1.99.8Z"/>
  </g>
</svg>