<?xml version="1.0" encoding="UTF-8"?><svg id="Layer_2" xmlns="http://www.w3.org/2000/svg" viewBox="0 0 74.8 40.71"><defs><style>.cls-1{fill:#fff;}</style></defs><g id="Layer_1-2"><g><path class="cls-1" d="m10.91,40.22v-9.17H0v-5.98L7.21.55h10.95v24.18h2.61l-.51,6.32h-2.1v9.17h-7.25Zm0-20c0-4.36.29-9.42.35-12.9h-.19c-1.21,5.3-2.73,12.04-4.1,17.41h3.93v-4.51Z"/><path class="cls-1" d="m38.68,22.29v3.92h-15.9v-3.92h15.9Z"/><path class="cls-1" d="m43.77,40.22V8.9c-1.14,0-2.65-.15-3.4-.25V3.01c2.52-.21,4.29-1.28,5.37-2.67h5.89v39.87h-7.86Z"/><path class="cls-1" d="m66.93,10.29v-.68c0-1.8-.39-3.34-2.2-3.34s-2.4,1.34-2.4,4.49v5.41c1.25-1.7,3.06-2.55,5.46-2.55,5.12,0,7.01,4.06,7.01,9.33v6.8c0,6.14-2.45,10.96-10.14,10.96s-10.01-5.25-10.01-11.1V12.15c0-6.73,2.06-12.15,10.07-12.15,8.56,0,9.51,6.2,9.51,9.94v.35h-7.3Zm.12,20.52v-6.85c0-2.37-.51-3.69-2.3-3.69-1.65,0-2.42,1-2.42,3.73v6.81c0,2.1.47,3.73,2.38,3.73s2.34-1.51,2.34-3.73Z"/></g></g></svg>