<?xml version="1.0" encoding="UTF-8"?><svg id="Layer_2" xmlns="http://www.w3.org/2000/svg" viewBox="0 0 94.18 42.03"><defs><style>.cls-1{fill:#fff;}</style></defs><g id="Layer_1-2"><g><path class="cls-1" d="m0,31.69v-3.45c0-4.77,1.97-6.57,4.1-7.9-2.18-1.4-3.59-3.32-3.59-7.94v-1.5C.51,4.56,4.06,1.24,10.23,1.24c5.71,0,9.48,3.01,9.48,9.81v1.44c0,4.94-1.53,6.58-3.47,7.81,2.45,1.28,4.1,3.49,4.1,7.91v3.03c0,7.74-3.61,10.71-10.38,10.71-5.69,0-9.97-2.58-9.97-10.26Zm12.55.58v-5.36c0-2.57-1.01-3.29-2.46-3.29s-2.38.98-2.38,3.22v5.47c0,2.08.81,3.25,2.42,3.25s2.42-.89,2.42-3.29ZM7.85,10.72v3.23c0,2.06.89,3.17,2.32,3.17s2.24-1.04,2.24-3.27v-3.17c0-1.84-.53-3.09-2.28-3.09-1.65,0-2.28,1.29-2.28,3.13Z"/><path class="cls-1" d="m36.07,7.55h-5.94V.61h19.76v6.94h-5.98v33.87h-7.84V7.55Z"/><path class="cls-1" d="m70.22,11.53v18.93c0,8.1-3.81,11.57-10.95,11.57s-10.25-3.56-10.25-11.49V11.32c0-7.88,4.33-11.32,10.61-11.32s10.58,3.38,10.58,11.53Zm-13.26-.88v20.86c0,2.52.86,3.83,2.62,3.83s2.66-1.19,2.66-3.87V10.59c0-2.55-.71-3.85-2.68-3.85-1.67,0-2.6,1.21-2.6,3.91Z"/><path class="cls-1" d="m73.22.61h9.65c8.41,0,11.31,3.83,11.31,12.28v15.34c0,7.03-1.49,13.19-10.78,13.19h-10.18V.61Zm7.86,34.49h1.53c3.08,0,3.59-2.01,3.59-5.19V11.63c0-3.01-.68-4.65-3.65-4.65h-1.47v28.12Z"/></g></g></svg>