<?xml version="1.0" encoding="UTF-8"?><svg id="Layer_2" xmlns="http://www.w3.org/2000/svg" viewBox="0 0 68.77 53.2"><defs><style>.cls-1{fill:#fff;}</style></defs><g id="Layer_1-2"><g><path class="cls-1" d="m11.46,49.66c-.25,0-.45-.2-.45-.45v-26.47c0-.25.2-.45.45-.45s.45.2.45.45v26.47c0,.25-.2.45-.45.45Z"/><g><circle class="cls-1" cx="11.46" cy="50.98" r="1.77"/><path class="cls-1" d="m11.46,53.2c-1.22,0-2.21-.99-2.21-2.21s.99-2.21,2.21-2.21,2.21.99,2.21,2.21-.99,2.21-2.21,2.21Zm0-3.53c-.73,0-1.32.59-1.32,1.32s.59,1.32,1.32,1.32,1.32-.59,1.32-1.32-.59-1.32-1.32-1.32Z"/></g><path class="cls-1" d="m11.46,22.92C5.14,22.92,0,17.78,0,11.46S5.14,0,11.46,0s11.46,5.14,11.46,11.46-5.14,11.46-11.46,11.46Zm0-18.29c-3.77,0-6.83,3.06-6.83,6.83s3.06,6.83,6.83,6.83,6.83-3.06,6.83-6.83-3.06-6.83-6.83-6.83Z"/><path class="cls-1" d="m34.38,49.66c-.25,0-.45-.2-.45-.45v-26.47c0-.25.2-.45.45-.45s.45.2.45.45v26.47c0,.25-.2.45-.45.45Z"/><g><circle class="cls-1" cx="34.38" cy="50.98" r="1.77"/><path class="cls-1" d="m34.38,53.2c-1.22,0-2.21-.99-2.21-2.21s.99-2.21,2.21-2.21,2.21.99,2.21,2.21-.99,2.21-2.21,2.21Zm0-3.53c-.73,0-1.32.59-1.32,1.32s.59,1.32,1.32,1.32,1.32-.59,1.32-1.32-.59-1.32-1.32-1.32Z"/></g><path class="cls-1" d="m34.38,22.92c-6.32,0-11.46-5.14-11.46-11.46S28.06,0,34.38,0s11.46,5.14,11.46,11.46-5.14,11.46-11.46,11.46Zm0-18.29c-3.77,0-6.83,3.06-6.83,6.83s3.06,6.83,6.83,6.83,6.83-3.06,6.83-6.83-3.06-6.83-6.83-6.83Z"/><path class="cls-1" d="m57.31,49.66c-.25,0-.45-.2-.45-.45v-26.47c0-.25.2-.45.45-.45s.45.2.45.45v26.47c0,.25-.2.45-.45.45Z"/><g><circle class="cls-1" cx="57.31" cy="50.98" r="1.77"/><path class="cls-1" d="m57.31,53.2c-1.22,0-2.21-.99-2.21-2.21s.99-2.21,2.21-2.21,2.21.99,2.21,2.21-.99,2.21-2.21,2.21Zm0-3.53c-.73,0-1.32.59-1.32,1.32s.59,1.32,1.32,1.32,1.32-.59,1.32-1.32-.59-1.32-1.32-1.32Z"/></g><path class="cls-1" d="m57.31,22.92c-6.32,0-11.46-5.14-11.46-11.46S50.99,0,57.31,0s11.46,5.14,11.46,11.46-5.14,11.46-11.46,11.46Zm0-18.29c-3.77,0-6.83,3.06-6.83,6.83s3.06,6.83,6.83,6.83,6.83-3.06,6.83-6.83-3.06-6.83-6.83-6.83Z"/></g></g></svg>